<svg id="Слой_1" xmlns="http://www.w3.org/2000/svg" width="126.56" height="69.4" viewBox="0 0 126.56 69.4"><style>.st0{fill-rule:evenodd;clip-rule:evenodd;fill:#056d87}.st1{fill:none;stroke:#9cb9bf;stroke-width:2;stroke-miterlimit:10}.st2,.st3,.st4{fill-rule:evenodd;clip-rule:evenodd}.st2{stroke:#9cb9bf;stroke-width:2;stroke-miterlimit:10;fill:none}.st3{fill:#9cb9bf}.st4{fill:none;stroke:#056d87;stroke-width:2;stroke-miterlimit:10}</style><g id="XMLID_2835_"><path id="XMLID_2842_" class="st0" d="M0 32.4h57.36v37H0z"/><path id="XMLID_2841_" class="st0" d="M0 20.26h57.36v10.08H0z"/><path id="XMLID_2840_" class="st1" d="M0 49.67l57.36.53"/><path id="XMLID_2839_" class="st2" d="M28.68 20.17V69.4"/><path id="XMLID_2838_" class="st2" d="M28.04 19.6c.19.43-.3.84-.69.58l-13-8.82a3.428 3.428 0 0 1-1.07-4.84l2.8-4.16C17.25.62 19.9.93 20.63 2.9l7.41 16.7z"/><path id="XMLID_2837_" class="st2" d="M29.04 19.88c-.16.35.24.68.56.47l13.26-8.99a3.428 3.428 0 0 0 1.07-4.84l-2.8-4.16C39.96.62 37.31.93 36.58 2.9l-7.54 16.98z"/><path id="XMLID_2836_" class="st2" d="M14.07 33.37l14.4-11.36L42.1 33.37"/></g><g id="XMLID_848_"><path id="XMLID_855_" class="st3" d="M69.2 49.67h57.36V69.4H69.2z"/><path id="XMLID_854_" class="st3" d="M69.2 36.84h57.36v10.08H69.2z"/><path id="XMLID_852_" class="st4" d="M97.88 36.84V69.4"/><path id="XMLID_851_" class="st4" d="M97.24 35.68c.19.43-.3.84-.69.58l-13-8.82a3.428 3.428 0 0 1-1.07-4.84l2.8-4.16c1.17-1.74 3.82-1.43 4.55.54l7.41 16.7z"/><path id="XMLID_850_" class="st4" d="M98.24 35.96c-.16.35.24.68.56.47l13.26-8.99a3.428 3.428 0 0 0 1.07-4.84l-2.8-4.16c-1.17-1.74-3.82-1.43-4.55.54l-7.54 16.98z"/><path id="XMLID_849_" class="st4" d="M83.27 49.45l14.4-11.36 13.63 11.36"/></g></svg>