<svg id="Слой_1" xmlns="http://www.w3.org/2000/svg" width="110.87" height="73.01" viewBox="0 0 110.87 73.01"><style>.st0{fill:#066c86}.st1{fill:#9db9bf}.st2{fill:none;stroke:#066c86;stroke-width:1.9642;stroke-miterlimit:10}.st3{fill:#c6dce0}</style><g id="XMLID_347_"><g id="XMLID_62_"><path id="XMLID_61_" class="st0" d="M26.68 32.77H10.1l8.29-14.36 8.29-14.35 8.29 14.35 8.28 14.36z"/><path id="XMLID_63_" class="st0" d="M26.68 50.48H5.5l10.59-18.34 10.59-18.33 10.58 18.33 10.59 18.34z"/><path id="XMLID_64_" class="st0" d="M26.68 71.28H1.56l12.56-21.75 12.56-21.76 12.55 21.76 12.56 21.75z"/><path id="XMLID_67_" class="st1" d="M26.68 64.21H15.67l5.5-9.53 5.51-9.54 5.5 9.54 5.5 9.53z"/><path id="XMLID_69_" class="st1" d="M26.68 40.25h-6.69l3.34-5.79 3.35-5.8 3.34 5.8 3.34 5.79z"/><path id="XMLID_70_" class="st1" d="M26.68 23.74h-4.35l2.17-3.76 2.18-3.77 2.17 3.77 2.17 3.76z"/></g><g id="XMLID_130_"><path id="XMLID_131_" class="st2" d="M85.16 25.27L77.79 7.8c-1-2.38.74-5.01 3.32-5.01h6.87c2.49 0 4.23 2.46 3.4 4.8l-6.22 17.68z"/><circle id="XMLID_68_" class="st1" cx="85.61" cy="48.6" r="22.76"/><path id="XMLID_71_" class="st3" d="M77.64 23.36h15.94v6.76H77.64z"/><circle id="XMLID_342_" class="st3" cx="79.75" cy="52.03" r="7.47"/></g></g></svg>