<svg id="Слой_1" xmlns="http://www.w3.org/2000/svg" width="132.51" height="83.83" viewBox="0 0 132.51 83.83"><style>.st0{fill:#066c86}.st1{fill:#9db9bf}.st2{stroke-linecap:round}.st2,.st3{fill:none;stroke:#066c86;stroke-width:1.9642;stroke-miterlimit:10}.st4{fill:#c6dce0}</style><g id="XMLID_346_"><g id="XMLID_343_"><path id="XMLID_340_" class="st0" d="M1.64 44.22h51.31V77.9H1.64z"/><path id="XMLID_144_" class="st1" d="M14.31 54.82h25.97v14.74H14.31z"/><path id="XMLID_142_" class="st2" d="M39.83 49.8c-.06-6.87-5.65-12.42-12.53-12.42-6.88 0-12.47 5.55-12.53 12.42"/></g><g id="XMLID_5_"><path id="XMLID_137_" class="st3" d="M110.08 11.41c-.05-4.98-4.09-9-9.08-9s-9.04 4.02-9.08 9"/><path id="XMLID_145_" class="st1" d="M95.42 10.87h12.11c9.54 0 17.5 7.28 18.36 16.78l4.54 50.25H72.52l4.54-50.25c.85-9.5 8.82-16.78 18.36-16.78z"/><path id="XMLID_136_" class="st4" d="M83.08 24.01H93v57.91h-9.92z"/><path id="XMLID_132_" class="st4" d="M109 24.01h9.92v57.91H109z"/><path id="XMLID_7_" class="st3" d="M83.08 44.22H93"/><path id="XMLID_8_" class="st3" d="M83.08 49.81H93"/><path id="XMLID_10_" class="st3" d="M109 44.22h9.92"/><path id="XMLID_9_" class="st3" d="M109 49.81h9.92"/></g></g></svg>