<svg id="Слой_1" xmlns="http://www.w3.org/2000/svg" width="96.34" height="74.7" viewBox="0 0 96.34 74.7"><style>.st0{fill:#066c86}.st1{fill:none;stroke:#9db9bf;stroke-width:1.9642;stroke-miterlimit:10}.st2{fill:#9db9bf}.st3,.st4{stroke-miterlimit:10}.st3{stroke-width:1.9642;stroke-linecap:round;fill:none;stroke:#066c86}.st4{fill:#c6dce0;stroke:#bcddda}</style><g id="XMLID_643_"><path id="XMLID_665_" class="st0" d="M14.27 2.99h-2.09c-5.48 0-9.92 4.44-9.92 9.92v59.72h21.92V12.91c0-5.48-4.44-9.92-9.91-9.92z"/><path id="XMLID_664_" class="st1" d="M2.26 18.7h21.92"/><path id="XMLID_663_" class="st2" d="M7.9 26.12h10.64V63.4H7.9z"/><path id="XMLID_662_" class="st2" d="M53.31 72.63c-5 0-9.06-4.81-9.06-10.75l-1.83-19.33c0-5.94 5.89-10.75 10.9-10.75 5 0 10.9 4.81 10.9 10.75l-1.83 19.33c-.02 5.93-4.08 10.75-9.08 10.75z"/><path id="XMLID_661_" class="st3" d="M53.31 31.79L43.22 51.13"/><path id="XMLID_660_" class="st3" d="M53.31 31.79l9.98 20.42"/><path id="XMLID_659_" class="st2" d="M80.69 72.63c-5 0-9.06-4.81-9.06-10.75L69.8 42.54c0-5.94 5.89-10.75 10.9-10.75 5 0 10.9 4.81 10.9 10.75l-1.83 19.33c-.02 5.94-4.07 10.76-9.08 10.76z"/><path id="XMLID_658_" class="st3" d="M80.69 31.79L70.61 51.13"/><path id="XMLID_657_" class="st3" d="M80.69 31.79l9.98 20.42"/><path id="XMLID_656_" class="st4" d="M53.52 65.99h-.43c-2.82 0-5.11-2.29-5.11-5.11v-.46c0-2.82 2.29-5.11 5.11-5.11h.43c2.82 0 5.11 2.29 5.11 5.11v.46a5.113 5.113 0 0 1-5.11 5.11z"/><path id="XMLID_654_" class="st4" d="M80.9 65.99h-.43c-2.82 0-5.11-2.29-5.11-5.11v-.46c0-2.82 2.29-5.11 5.11-5.11h.43c2.82 0 5.11 2.29 5.11 5.11v.46c0 2.83-2.29 5.11-5.11 5.11z"/><path id="XMLID_647_" class="st2" d="M46.77 10.89v1.55c0 4.58 2.72 8.29 6.07 8.29h4.05c2.19 0 4.3-1.19 5.85-3.31l.11-.15c1.24-1.69 2.92-2.64 4.67-2.64h.46c1.55 0 3.04.84 4.14 2.34 1.55 2.12 3.66 3.31 5.85 3.31h2.58c3.67 0 6.65-4.06 6.65-9.08 0-4.83-2.87-8.75-6.41-8.75H52.94c-3.41 0-6.17 3.78-6.17 8.44z"/><path id="XMLID_646_" class="st3" d="M46.77 9.84h-5.93"/><path id="XMLID_645_" class="st3" d="M87.19 10.12h5.82"/><path id="XMLID_644_" class="st4" d="M56.4 7.46h21.58v2.38H56.4z"/></g></svg>