<svg id="Слой_1" xmlns="http://www.w3.org/2000/svg" width="113.92" height="65.24" viewBox="0 0 113.92 65.24"><style>.st0{fill:#9db9bf}.st1{fill:none;stroke:#066c86;stroke-width:1.9642;stroke-linecap:round;stroke-miterlimit:10}.st2{fill:#c6dce0}.st3{fill:#066c86}.st4,.st5{fill:none;stroke:#066c86;stroke-width:1.9642;stroke-miterlimit:10}.st5{stroke:#9db9bf}</style><g id="XMLID_666_"><g id="XMLID_676_"><path id="XMLID_683_" transform="rotate(-90 99.198 46.811)" class="st0" d="M82.53 33.54h33.33v26.54H82.53z"/><g id="XMLID_678_"><path id="XMLID_682_" class="st1" d="M89.37 55.04h-7.58"/><path id="XMLID_681_" class="st1" d="M89.52 49.05h-7.87"/><path id="XMLID_680_" class="st1" d="M89.52 43.51h-7.87"/><path id="XMLID_679_" class="st1" d="M89.52 37.82h-7.87"/></g><path id="XMLID_677_" transform="rotate(-90 102.38 46.811)" class="st2" d="M92.77 42.99h19.21v7.63H92.77z"/></g><g id="XMLID_667_"><path id="XMLID_675_" class="st2" d="M28 7.08h40.23V57.2H28z"/><path id="XMLID_674_" class="st3" d="M36.52 17.55h23.19v30.84H36.52z"/><path id="XMLID_673_" class="st1" d="M34.52 7.08v51.09"/><path id="XMLID_672_" class="st0" d="M10.6 14.44h40.23v50.12H10.6z"/><path id="XMLID_671_" class="st4" d="M17.12 14.44v50.12"/><path id="XMLID_670_" class="st3" d="M1.78 2.22h40.23v50.12H1.78z"/><path id="XMLID_669_" class="st5" d="M8.3 2.22v49.85"/><path id="XMLID_668_" class="st0" d="M14.98 11.34h19.54v31.61H14.98z"/></g></g></svg>