<svg id="Слой_1" xmlns="http://www.w3.org/2000/svg" width="97.16" height="68.11" viewBox="0 0 97.16 68.11"><style>.st0{fill:#066c86}.st1,.st2{fill:none;stroke-miterlimit:10}.st1{stroke-width:1.9642;stroke:#066c86}.st2{stroke:#9db9bf}.st3{fill:#9db9bf}</style><g id="XMLID_60_"><g id="XMLID_11_"><path id="XMLID_58_" class="st0" d="M69.33 35.56l.61-.01C69.77 16.9 54.45 1.72 35.79 1.72S1.82 16.9 1.65 35.55l.61.01.61.01c.04-4.25 3.53-7.7 7.78-7.7s7.74 3.46 7.78 7.7h1.22c.04-4.25 3.53-7.7 7.78-7.7s7.74 3.46 7.78 7.7h1.22c.04-4.25 3.53-7.7 7.78-7.7s7.74 3.46 7.78 7.7h1.22c.04-4.25 3.53-7.7 7.78-7.7s7.74 3.46 7.78 7.7l.56-.01z"/><path id="XMLID_57_" class="st1" d="M35.79 57.14c.04 3.9 3.2 7.04 7.11 7.04a7.11 7.11 0 0 0 7.11-7.04"/><path id="XMLID_15_" class="st1" d="M35.79 26.62v30.52"/><path id="XMLID_16_" class="st2" d="M4.18 21.96h63.21"/><path id="XMLID_17_" class="st2" d="M7.01 17.01h57.56"/></g><g id="XMLID_59_"><path id="XMLID_19_" class="st1" d="M87.66 40.24V9.72c-.04-3.9-3.2-7.04-7.11-7.04a7.11 7.11 0 0 0-7.11 7.04"/><path id="XMLID_20_" class="st3" d="M81.12 19.67l6.4 9.12 5.78-9.12z"/><path id="XMLID_30_" class="st3" d="M78.2 27.77l9.46 38.9 8.57-38.9-5.25-2.61h-7.79z"/></g></g></svg>