<svg id="Слой_1" xmlns="http://www.w3.org/2000/svg" width="90" height="88.23" viewBox="0 0 90 88.23"><style>.st0{fill:#9db9bf}.st0,.st1,.st2{fill-rule:evenodd;clip-rule:evenodd}.st1{fill:#066c86}.st2{fill:#c6dce0}.st3{fill:none;stroke:#066c86;stroke-width:2;stroke-miterlimit:10}</style><g id="XMLID_349_"><g id="XMLID_2844_"><path id="XMLID_2845_" transform="rotate(134.999 68.756 32.677)" class="st0" d="M44.81 27.96H92.7v9.44H44.81z"/></g><path id="XMLID_2843_" class="st0" d="M1.1 45.7h47.89v41.38H1.1z"/><path id="XMLID_923_" class="st1" d="M25.12 19.72l2.36 5.01 5.49.7-4.03 3.79 1.03 5.44L25.12 32l-4.86 2.66 1.03-5.44-4.03-3.79 5.49-.7z"/><path id="XMLID_921_" class="st1" d="M46.82 30.31l-1.04 2.88 1.88 2.42-3.06-.09-1.72 2.53-.86-2.94-2.94-.86 2.53-1.72-.09-3.06 2.42 1.88z"/><path id="XMLID_919_" class="st1" d="M44.31 13.09l-.64 1.79 1.16 1.5-1.9-.06-1.07 1.57-.53-1.82-1.83-.53 1.58-1.07-.06-1.91 1.5 1.17z"/><path id="XMLID_836_" class="st1" d="M29.39 4.72l-2.22 2.1.57 3.01-2.68-1.47-2.68 1.48.56-3.01-2.23-2.09 3.03-.39 1.3-2.78 1.31 2.77z"/><path id="XMLID_355_" class="st1" d="M3.2 30.31l1.04 2.88-1.88 2.42 3.06-.09 1.72 2.53.86-2.94 2.94-.86-2.53-1.72.09-3.06-2.42 1.88z"/><path id="XMLID_354_" class="st1" d="M5.71 13.09l.64 1.79-1.16 1.5 1.9-.06 1.07 1.57.53-1.82 1.83-.53-1.58-1.07.06-1.91-1.5 1.17z"/><path id="XMLID_353_" class="st2" d="M8.89 52.87h32.25v26.96H8.89z"/><path id="XMLID_352_" class="st3" d="M12.75 61.73l24.52.23"/></g></svg>