<svg id="Слой_1" xmlns="http://www.w3.org/2000/svg" width="106.11" height="74.37" viewBox="0 0 106.11 74.37"><style>.st0{fill:none;stroke:#066c86;stroke-width:1.9642;stroke-linecap:round;stroke-miterlimit:10}.st1{fill:#c6dce0}.st2{fill:#066c86}.st3{fill:none;stroke:#9db9bf;stroke-width:2;stroke-miterlimit:10}</style><g id="XMLID_916_"><path id="XMLID_853_" class="st0" d="M62.62 22.15c-.16.63 9.74-5.08 20.64 0"/><path id="XMLID_856_" class="st0" d="M22.55 22.15c-.16.63 9.74-5.08 20.64 0"/><path id="XMLID_924_" class="st1" d="M106.01 39.63L89.44 23.06c-.19-.19-.4-.36-.63-.5-1.05-.89-2.39-1.45-3.88-1.45H83.2c-1.02 3.29-4.7 5.73-9.1 5.73-4.4 0-8.08-2.44-9.1-5.73h-1.77c-1.68 0-3.19.69-4.28 1.8-.06.05-.13.09-.19.15L42.21 39.63l9.31 9.31 5.71-5.71v30.61h33.72V43.2l5.74 5.74 9.32-9.31z"/><path id="XMLID_922_" class="st1" d="M64.51 39.63L47.95 23.06c-.19-.19-.4-.36-.63-.5-1.05-.89-2.39-1.45-3.88-1.45h-1.73c-1.02 3.29-4.7 5.73-9.1 5.73s-8.08-2.44-9.1-5.73h-1.77c-1.68 0-3.19.69-4.28 1.8-.06.05-.13.09-.19.15L.71 39.63l9.31 9.31 5.71-5.71v30.61h33.72V43.2l5.74 5.74 9.32-9.31z"/><path id="XMLID_920_" class="st2" d="M85.79 34.11L69.22 17.54c-.19-.19-.4-.36-.63-.5-1.05-.89-2.39-1.45-3.88-1.45h-1.73c-1.02 3.29-4.7 5.73-9.1 5.73s-8.08-2.44-9.1-5.73h-1.77c-1.68 0-3.19.69-4.28 1.8-.06.05-.13.09-.19.15L21.99 34.11l9.31 9.31 5.71-5.71v30.61h33.72V37.68l5.74 5.74 9.32-9.31z"/><path id="XMLID_918_" class="st0" d="M51.04 3.42s6.12-4.68 8.24.11c2.45 5.54-6.88 2.29-5.88 10.21"/><path id="XMLID_917_" class="st0" d="M43.53 15.74c-.16.63 9.74-5.08 20.64 0"/><path id="XMLID_847_" class="st3" d="M37.01 45.41h33.73"/><path id="XMLID_858_" class="st3" d="M37.01 50.91h33.73"/></g></svg>