<svg id="Слой_1" xmlns="http://www.w3.org/2000/svg" width="115.29" height="62.73" viewBox="0 0 115.29 62.73"><style>.st0{fill:#066c86}.st1,.st2{fill:none;stroke:#066c86;stroke-width:1.9642;stroke-linecap:round;stroke-miterlimit:10}.st2{stroke-width:3.0107}.st3{fill:#9db9bf}.st4,.st5{stroke-miterlimit:10}.st4{stroke-linecap:round;fill:#fff;stroke:#066c86;stroke-width:1.9642}.st5{fill:none;stroke:#9db9bf;stroke-width:2}</style><g id="XMLID_889_"><path id="XMLID_902_" class="st0" d="M0 5.94h35.61v55.45H0z"/><g id="XMLID_897_"><path id="XMLID_901_" class="st1" d="M9.02 9.62V1.53"/><path id="XMLID_900_" class="st1" d="M15.42 9.78V1.37"/><path id="XMLID_899_" class="st1" d="M21.34 9.78V1.37"/><path id="XMLID_898_" class="st1" d="M27.41 9.78V1.37"/></g><path id="XMLID_896_" class="st0" d="M48.89 4.95h8.1v50.53h-8.1z"/><path id="XMLID_895_" class="st2" d="M52.78 56.12v4.67"/><path id="XMLID_894_" class="st1" d="M60.71 5.73v20.4"/><path id="XMLID_893_" class="st3" d="M7.87 19.44h19.87v30.88H7.87z"/><path id="XMLID_892_" class="st4" d="M107.87 50.33h-2.94c-3.52 0-6.38-2.86-6.38-6.38V32.89c0-3.52 2.86-6.38 6.38-6.38h2.94c3.52 0 6.38 2.86 6.38 6.38v11.05c0 3.53-2.86 6.39-6.38 6.39z"/><path id="XMLID_891_" class="st3" d="M71.96 15.93h31.14V61.4H71.96z"/><path id="XMLID_890_" class="st0" d="M77.7 28.03h19.17v7.57H77.7z"/><path id="XMLID_857_" class="st5" d="M57.12 29.12h-8.23"/><path id="XMLID_859_" class="st5" d="M57.12 33.67h-8.23"/></g></svg>