<svg id="Слой_1" xmlns="http://www.w3.org/2000/svg" width="110.92" height="57.19" viewBox="0 0 110.92 57.19"><style>.st0{fill:none;stroke:#066c86;stroke-width:1.9642;stroke-linecap:round;stroke-miterlimit:10}.st1{fill:#066c86}.st2{fill:#9db9bf}.st3{fill:none;stroke:#066c86;stroke-width:1.5224;stroke-linecap:round;stroke-miterlimit:10}.st4{fill:#c6dce0}.st5{fill:none;stroke:#9db9bf;stroke-width:2;stroke-miterlimit:10}</style><g id="XMLID_799_"><path id="XMLID_846_" class="st0" d="M54.55 1.16H33.08c-4.83 0-8.74 3.91-8.74 8.74v26.52h30.21c2.98 0 5.4-2.42 5.4-5.4V6.56c0-2.98-2.42-5.4-5.4-5.4z"/><path id="XMLID_845_" class="st1" d="M36.11 13.62v42.99h35.61V7.1c0-3.8-3.03-6.88-6.77-6.88h-25.5"/><path id="XMLID_844_" transform="rotate(-180 54.236 45.541)" class="st2" d="M43.97 41.4H64.5v8.28H43.97z"/><path id="XMLID_860_" class="st1" d="M36.11 30.65V14.53c0-3.73-1.85-6.01-4.93-5.89h-.82c-3.25 0-4.89 2.64-4.89 5.89v16L24.34 8.65 26 4.79l4.23-3.63h11.92l-2.63 16.35-3.4 13.94"/><path id="XMLID_817_" class="st0" d="M36.11 14.66H1.56"/><path id="XMLID_816_" class="st0" d="M83.35 14.66H71.72"/><path id="XMLID_810_" class="st2" d="M110.65 56.62H84.68l6.66-25.97H104z"/><path id="XMLID_809_" class="st3" d="M97.67 30.65v-4.11"/><path id="XMLID_803_" class="st4" d="M97.49 24.51s-4.82-2.24-2.4-6.94c1.21-2.36.92-5.35.14-6.9s11.63 8.33 2.26 13.84z"/><path id="XMLID_708_" class="st5" d="M43.97 34.6H64.5"/></g></svg>