<svg id="Слой_1" xmlns="http://www.w3.org/2000/svg" width="93.38" height="72" viewBox="0 0 93.38 72"><style>.st0{fill:#066c86}.st1{fill:#9db9bf}.st2,.st3,.st4{fill:none;stroke:#9db9bf;stroke-width:1.9642;stroke-miterlimit:10}.st3,.st4{stroke:#066c86}.st4{stroke-linecap:round}</style><g id="XMLID_698_"><path id="XMLID_714_" class="st0" d="M1.61 10.57h35.61v59.71H1.61z"/><path id="XMLID_713_" transform="rotate(180 81.342 35.555)" class="st1" d="M69.92 15.74h22.84v39.62H69.92z"/><path id="XMLID_712_" class="st1" d="M9.16 23.36h20.53v34.13H9.16z"/><path id="XMLID_711_" class="st0" d="M76.95 22.23h8.78v15.09h-8.78z"/><path id="XMLID_861_" class="st2" d="M29.36 10.57l-2.27 7.15H12.74l-2.26-7.15"/><path id="XMLID_707_" class="st2" d="M8.76 63.06h21.32"/><path id="XMLID_706_" class="st3" d="M74.86 55.37v15.29h12.96V55.37"/><path id="XMLID_705_" class="st3" d="M83.46 64v-3.83"/><path id="XMLID_704_" class="st3" d="M79.04 64v-3.83"/><path id="XMLID_702_" class="st4" d="M19.92 10.57V5.74c0-1.91 1.55-3.46 3.46-3.46h24.38c1.91 0 3.46 1.55 3.46 3.46v45.11"/><path id="XMLID_701_" class="st1" d="M45.17 47.98h12.11v12.65H45.17z"/><path id="XMLID_700_" class="st3" d="M48.21 60.62v5.93"/><path id="XMLID_699_" class="st3" d="M54.24 60.62v5.93"/></g></svg>