<svg id="Слой_1" xmlns="http://www.w3.org/2000/svg" width="149.07" height="72.08" viewBox="0 0 149.07 72.08"><style>.st0{fill:#c6dce0}.st1{fill:none;stroke:#066c86;stroke-width:1.9642;stroke-linecap:round;stroke-miterlimit:10}.st2{fill:#9db9bf}.st3{fill:#066c86}.st4{fill:none;stroke:#9db9bf;stroke-width:1.9642;stroke-miterlimit:10}.st5{fill:#bcddda}</style><g id="XMLID_684_"><circle id="XMLID_692_" class="st0" cx="56.63" cy="35.73" r="32.89"/><circle id="XMLID_693_" class="st1" cx="56.63" cy="35.73" r="26.62"/><circle id="XMLID_691_" class="st2" cx="56.63" cy="35.73" r="16.64"/><path id="XMLID_690_" class="st3" d="M1.86 47.56c.11 12.11 9.96 21.9 22.1 21.9s21.99-9.78 22.1-21.9H1.86z"/><path id="XMLID_689_" class="st4" d="M44.6 53.45H2.88"/><path id="XMLID_688_" class="st1" d="M140.12 58h-2.94c-3.52 0-6.38-2.86-6.38-6.38V40.57c0-3.52 2.86-6.38 6.38-6.38h2.94c3.52 0 6.38 2.86 6.38 6.38v11.05c0 3.53-2.85 6.38-6.38 6.38z"/><path id="XMLID_687_" class="st3" d="M104.22 23.61h31.14v45.47h-31.14z"/><path id="XMLID_686_" class="st5" d="M110.2 35.71h19.17v7.57H110.2z"/><path id="XMLID_685_" class="st1" d="M45.96 48.79h5.54c4.14 0 5.69 4.92 2.18 6.9L40 61.27"/></g></svg>