<svg id="Слой_1" xmlns="http://www.w3.org/2000/svg" width="115.35" height="61.86" viewBox="0 0 115.35 61.86"><style>.st0{fill:#066c86}.st1{stroke-linecap:round}.st1,.st2{fill:none;stroke:#066c86;stroke-width:1.9642;stroke-miterlimit:10}.st3{fill:#9db9bf}.st4{fill:#c6dce0}</style><g id="XMLID_715_"><g id="XMLID_788_"><path id="XMLID_791_" transform="rotate(19.056 97.153 29.8)" class="st0" d="M93.1 4.53h8.1v50.53h-8.1z"/><path id="XMLID_790_" class="st1" d="M88.55 54.23l-1.53 4.42"/><path id="XMLID_789_" class="st2" d="M112.56 9.15l-6.66 19.28"/></g><g id="XMLID_778_"><path id="XMLID_786_" transform="rotate(19.056 14.067 29.8)" class="st3" d="M10.02 4.53h8.1v50.53h-8.1z"/><path id="XMLID_783_" class="st1" d="M5.46 54.23l-1.52 4.42"/><path id="XMLID_779_" class="st2" d="M29.47 9.15l-6.66 19.28"/></g><g id="XMLID_740_"><path id="XMLID_777_" class="st0" d="M37.54 2.68h8.1v50.53h-8.1z"/><path id="XMLID_762_" class="st1" d="M41.43 53.86v4.67"/><path id="XMLID_743_" class="st2" d="M49.55 3.46v20.4"/></g><g id="XMLID_717_"><path id="XMLID_728_" class="st3" d="M62.26 7.99h8.09l1.14 50.54H61.12z"/><path id="XMLID_719_" class="st1" d="M66.46 7.35V2.68"/><path id="XMLID_718_" class="st2" d="M57.2 58.39v-20.4"/></g><path id="XMLID_734_" class="st4" d="M61.92 23.22h8.78l.22 10.04h-9.23z"/><path id="XMLID_792_" class="st3" d="M37.56 27.95h8.04v10.04h-8.04z"/></g></svg>