<svg id="Слой_1" xmlns="http://www.w3.org/2000/svg" width="124.73" height="74.03" viewBox="0 0 124.73 74.03"><style>.st0{fill:#066c86}.st1{fill:#9db9bf}.st2{stroke-width:4.2065}.st2,.st3,.st4{fill:none;stroke:#066c86;stroke-miterlimit:10}.st3{stroke-linecap:round;stroke-width:1.9642}.st4{stroke-width:1.8215}.st5{fill:#bcddda}.st6{fill:none;stroke:#066c86;stroke-width:1.9642;stroke-miterlimit:10}</style><g id="XMLID_862_"><path id="XMLID_888_" class="st0" d="M1.78 11.8h44.26v59.97H1.78z"/><path id="XMLID_887_" class="st1" d="M10.37 24.6h27.08v38.94H10.37z"/><path id="XMLID_885_" class="st3" d="M37.86 16.43C37.79 8.78 31.57 2.6 23.91 2.6c-7.67 0-13.89 6.18-13.96 13.83"/><path id="XMLID_884_" class="st1" d="M65.14 33.05h57.48v38.72H65.14z"/><path id="XMLID_883_" class="st4" d="M76.4 36.18v-7.2"/><path id="XMLID_882_" class="st4" d="M83.44 36.18v-7.2"/><path id="XMLID_881_" class="st4" d="M90.48 36.18v-7.2"/><path id="XMLID_880_" class="st4" d="M97.51 36.18v-7.2"/><path id="XMLID_879_" class="st4" d="M104.55 36.18v-7.2"/><path id="XMLID_878_" class="st4" d="M111.59 36.18v-7.2"/><path id="XMLID_877_" class="st4" d="M118.62 36.18v-7.2"/><path id="XMLID_876_" class="st4" d="M69.37 36.18v-7.2"/><g id="XMLID_866_"><path id="XMLID_875_" class="st5" d="M93.91 42.12h5.44v5.44h-5.44z"/><path id="XMLID_874_" class="st5" d="M101.86 42.12h5.44v5.44h-5.44z"/><path id="XMLID_873_" class="st5" d="M109.72 42.12h5.44v5.44h-5.44z"/><path id="XMLID_872_" class="st5" d="M93.91 50.11h5.44v5.44h-5.44z"/><path id="XMLID_871_" class="st5" d="M101.86 50.11h5.44v5.44h-5.44z"/><path id="XMLID_870_" class="st5" d="M109.72 50.11h5.44v5.44h-5.44z"/><path id="XMLID_869_" class="st5" d="M93.91 58.1h5.44v5.44h-5.44z"/><path id="XMLID_868_" class="st5" d="M101.86 58.1h5.44v5.44h-5.44z"/><path id="XMLID_867_" class="st5" d="M109.72 58.1h5.44v5.44h-5.44z"/></g><path id="XMLID_865_" class="st6" d="M72.93 43.93h12.72"/><path id="XMLID_864_" class="st6" d="M72.93 49.33h12.72"/><path id="XMLID_863_" class="st6" d="M72.93 54.88h12.72"/></g></svg>