<svg id="Слой_1" xmlns="http://www.w3.org/2000/svg" width="108.85" height="74.7" viewBox="0 0 108.85 74.7"><style>.st0{fill:none;stroke:#066c86;stroke-width:1.9642;stroke-miterlimit:10}.st1{fill:#9db9bf}.st2{fill:#bcddda}.st3{fill:none;stroke:#066c86;stroke-width:1.9642;stroke-linecap:round;stroke-miterlimit:10}.st4{fill:#066c86}</style><g id="XMLID_582_"><g id="XMLID_609_"><path id="XMLID_622_" class="st0" d="M49.51 5.55h12.7v13.9c0 6.17-5 11.17-11.17 11.17h-2.73"/><path id="XMLID_621_" class="st0" d="M15.58 5.55H2.88v13.9c0 6.17 5 11.17 11.17 11.17h2.73"/><path id="XMLID_620_" class="st0" d="M30.92 42.54V59.5"/><path id="XMLID_619_" class="st0" d="M36.04 42.54V59.5"/><path id="XMLID_623_" class="st1" d="M32.82 43.55c-9.48 0-17.16-7.68-17.16-17.16V1.99h34.33v24.39c-.01 9.48-7.69 17.17-17.17 17.17z"/><path id="XMLID_617_" class="st1" d="M15.65 59.5h35.66v12.31H15.65z"/><path id="XMLID_616_" class="st2" d="M33.05 33.68c-5.11 0-9.25-4.14-9.25-9.25V11.86h18.5v12.56c0 5.12-4.14 9.26-9.25 9.26z"/><path id="XMLID_610_" class="st2" d="M21.8 63.65h23.91v4H21.8z"/></g><g id="XMLID_583_"><path id="XMLID_596_" class="st3" d="M97.98 28.74h8.25v9.03a7.26 7.26 0 0 1-7.26 7.26H97.2"/><path id="XMLID_595_" class="st3" d="M76.72 28.74h-8.25v9.03a7.26 7.26 0 0 0 7.26 7.26h1.77"/><path id="XMLID_594_" class="st3" d="M85.65 53.44v10.37"/><path id="XMLID_593_" class="st3" d="M89.86 53.44v10.37"/><path id="XMLID_608_" class="st4" d="M87.53 53.44c-6.16 0-11.16-4.99-11.16-11.16V26.43h22.31v15.85c0 6.17-4.99 11.16-11.15 11.16z"/><path id="XMLID_592_" class="st4" d="M76.37 63.81h23.18v8H76.37z"/><path id="XMLID_590_" class="st1" d="M87.53 46.93A5.93 5.93 0 0 1 81.6 41v-8.06h11.86V41c0 3.27-2.66 5.93-5.93 5.93z"/><path id="XMLID_589_" class="st1" d="M81.33 66.9h13.81v1.81H81.33z"/></g></g></svg>