<svg id="Слой_1" xmlns="http://www.w3.org/2000/svg" width="198" height="42" viewBox="-378.5 277.28 198 42"><style>.st0{fill:#adadab}</style><g id="Page-1"><g id="Desktop_about_app" transform="translate(-30 -14)"><g id="menu"><g id="logo" transform="translate(30 14)"><path id="Fill-1" class="st0" d="M-364.52 280.63h-2.08c-.78 0-1.54.15-2.29.44-.75.29-1.41.76-1.98 1.39-.58.64-1.04 1.48-1.4 2.53-.36 1.05-.53 2.35-.53 3.9 0 1.48.16 2.72.48 3.72.32 1 .76 1.81 1.32 2.42.56.62 1.22 1.06 1.98 1.32s1.57.39 2.41.39h2.08v-16.11zm-3.26 19.4l-6.2 14.14h-4.52l6.81-15.12c-1.59-.83-2.88-2.04-3.86-3.64s-1.47-3.78-1.47-6.53c0-1.93.28-3.62.84-5.08.56-1.46 1.32-2.67 2.29-3.64.97-.96 2.09-1.69 3.38-2.17s2.64-.72 4.07-.72h5.85v36.89h-3.91v-14.14h-3.28z"/><path id="Fill-3" d="M-275.79 314.53c-2.74 0-4.9-1.11-6.45-3.33-1.56-2.22-2.34-5.56-2.34-10.04 0-2.03.19-3.87.58-5.52.39-1.65.97-3.05 1.73-4.21.76-1.15 1.71-2.05 2.85-2.68 1.13-.64 2.45-.95 3.94-.95 1.15 0 2.08.13 2.8.39.71.26 1.35.58 1.93.95l-.56 3.82c-.54-.48-1.18-.9-1.91-1.26s-1.5-.54-2.31-.54c-1.42 0-2.59.81-3.51 2.43-.91 1.62-1.37 4.08-1.37 7.38 0 3.27.38 5.79 1.14 7.56.76 1.77 1.96 2.66 3.58 2.66.98 0 1.83-.16 2.54-.49.71-.33 1.3-.7 1.78-1.11l.92 2.99c-.68.59-1.44 1.06-2.29 1.42-.85.35-1.86.53-3.05.53zm-20.38-13.31v12.95h-3.96v-26h3.96v12.02l6.15-12.02h4.01l-6.35 12.23 7.27 13.78h-4.32l-6.76-12.96zm-15.09-10.11c-1.22 0-2.08.7-2.59 2.09-.51 1.39-.83 3.26-.97 5.6h6.56c0-1.1-.05-2.12-.15-3.07-.1-.95-.26-1.76-.48-2.45-.22-.69-.53-1.22-.92-1.6-.39-.38-.88-.57-1.45-.57zm7.11 21.31a9.75 9.75 0 0 1-2.8 1.55c-1.05.38-2.22.57-3.51.57-2.64 0-4.73-1.04-6.25-3.12-1.53-2.08-2.29-5.13-2.29-9.16 0-2.1.14-4.03.43-5.78s.75-3.28 1.37-4.57c.63-1.29 1.43-2.3 2.41-3.02.98-.72 2.15-1.08 3.51-1.08 1.05 0 2.02.22 2.9.64.88.43 1.63 1.13 2.24 2.09.61.96 1.08 2.21 1.42 3.74.34 1.53.51 3.4.51 5.6v2.22h-10.67c0 2.96.4 5.19 1.19 6.71.8 1.51 1.99 2.27 3.58 2.27 1.12 0 2.11-.2 2.97-.59.86-.39 1.55-.78 2.06-1.16l.93 3.09zm-23.17-21h-4.42v.46c0 1.38-.03 2.88-.08 4.51a71.33 71.33 0 0 1-.33 4.98c-.17 1.69-.41 3.35-.71 4.98-.3 1.63-.73 3.14-1.27 4.51h6.81v-19.44zm5.94 27.86h-3.56v-5.11h-10.98v5.11h-3.56v-8.41h1.58c.58-1.38 1.03-2.9 1.37-4.57.34-1.67.6-3.39.79-5.16.19-1.77.31-3.58.36-5.42.05-1.84.08-3.62.08-5.34v-2.22h11.89v22.7h2.03v8.42zm-20.38-31.11v26h-3.91v-11.66h-5.9v11.66h-3.96v-26h3.96v11.04h5.9v-11.04h3.91z"/><path id="Fill-6" d="M-252.77 279.4v34.77h-2.54V279.4h-7.16v-2.12h16.92v2.12z"/><path id="Fill-8" d="M-240.52 312.73c1.19 0 2.19-.5 3.02-1.5.83-1 1.48-2.2 1.96-3.61v-7.17h-2.74c-2.13 0-3.71.52-4.73 1.55-1.02 1.03-1.52 2.68-1.52 4.95 0 1.86.36 3.29 1.09 4.28.73 1 1.7 1.5 2.92 1.5zm5.69 1.44c-.1-.34-.21-.78-.33-1.32-.12-.53-.21-1.26-.28-2.19-.61 1.24-1.37 2.22-2.29 2.94-.92.72-2.02 1.08-3.3 1.08-1.73 0-3.13-.66-4.22-1.99-1.08-1.32-1.63-3.17-1.63-5.55 0-2.79.73-4.89 2.19-6.32 1.46-1.43 3.57-2.14 6.35-2.14h2.8v-3.25c0-1.99-.36-3.44-1.07-4.33-.71-.89-1.78-1.34-3.2-1.34-1.09 0-2.1.25-3.05.75-.95.5-1.73 1.2-2.34 2.09l-.66-2.32c.51-.69 1.28-1.3 2.31-1.83s2.28-.8 3.74-.8c2.13 0 3.77.61 4.9 1.83 1.13 1.22 1.7 3.12 1.7 5.7v14.19c0 .89.05 1.8.15 2.71.1.91.24 1.61.41 2.09h-2.18z"/><path id="Fill-10" d="M-225.32 314.17h-2.39v-26h2.39v12.23l8.58-12.23h2.34l-8.43 12.07 9.04 13.93h-2.64l-8.89-13.47z"/><path id="Fill-12" d="M-204.23 312.57c.81 0 1.53-.14 2.16-.41.63-.28 1.16-.6 1.6-.98.51-.38.95-.84 1.32-1.39l.76 2.01c-.37.55-.85 1.03-1.42 1.45-.47.38-1.09.71-1.85 1.01-.76.29-1.64.44-2.62.44-2.58 0-4.57-1.18-5.97-3.54-1.41-2.36-2.11-5.67-2.11-9.93 0-4.3.69-7.64 2.08-10.01 1.39-2.37 3.4-3.56 6.05-3.56 1.32 0 2.44.23 3.35.7.92.46 1.66 1.04 2.24 1.73l-.66 2.58a9.242 9.242 0 0 0-2.08-2.06c-.81-.58-1.76-.88-2.85-.88-1.97 0-3.41 1-4.35 2.99-.93 1.99-1.4 4.83-1.4 8.51 0 3.58.46 6.36 1.37 8.36.92 1.99 2.38 2.98 4.38 2.98"/><path id="Fill-14" d="M-182.79 296.06c0-.69.02-1.32.05-1.88.03-.57.08-1.13.15-1.68h-.15c-.17.59-.37 1.14-.61 1.68-.24.53-.49 1.09-.76 1.68l-8.33 18.32h-2.03v-26h2.24v18.06c0 .69-.02 1.32-.05 1.91-.03.58-.09 1.17-.15 1.75h.15c.17-.58.37-1.16.61-1.73.24-.57.49-1.14.76-1.73l8.33-18.27h2.08v26h-2.29v-18.11z"/></g></g></g></g></svg>