<svg id="Режим_изоляции" xmlns="http://www.w3.org/2000/svg" width="15.97" height="16.02" viewBox="0 0 15.97 16.02"><style>.st0{fill:#1d1d1b}</style><g id="XMLID_7703_"><g id="XMLID_7704_"><path id="XMLID_7709_" class="st0" d="M8.01.07c1.07 0 2.15-.01 3.22 0 1.28.01 2.38.47 3.29 1.37.65.64 1.08 1.43 1.26 2.32.06.3.1.62.1.92.01 2.2.02 4.4 0 6.59-.01 1.18-.44 2.21-1.23 3.08a4.616 4.616 0 0 1-3.39 1.51c-2.13.01-4.25 0-6.38.01-1.26 0-2.36-.39-3.29-1.24C.9 14 .43 13.23.22 12.32a4.82 4.82 0 0 1-.14-1.06C.07 9.07.07 6.88.08 4.7c0-.98.3-1.88.87-2.68.6-.84 1.4-1.41 2.37-1.73.44-.15.89-.22 1.35-.22h3.34zm6.44 7.92V4.74a3.202 3.202 0 0 0-3.22-3.22H4.72A3.202 3.202 0 0 0 2.3 2.64c-.5.57-.77 1.24-.78 2-.01 2.21-.01 4.41 0 6.62 0 .31.06.63.15.93.4 1.33 1.66 2.25 3.05 2.25h6.44c.64 0 1.23-.15 1.77-.49.97-.62 1.48-1.52 1.51-2.66.03-1.1.01-2.2.01-3.3z"/><path id="XMLID_7706_" class="st0" d="M12.29 7.97c-.01 2.38-1.93 4.31-4.31 4.31-2.39 0-4.32-1.91-4.31-4.34.01-2.34 1.92-4.26 4.29-4.27 2.41-.01 4.31 1.92 4.33 4.3zm-7.18-.01c.01 1.64 1.29 2.91 2.95 2.88A2.843 2.843 0 0 0 10.86 8c.01-1.66-1.28-2.92-2.94-2.89-1.55.02-2.8 1.27-2.81 2.85z"/><path id="XMLID_7705_" class="st0" d="M12.22 4.38c-.37 0-.65-.3-.65-.68.01-.35.31-.63.67-.63.34 0 .63.31.63.65 0 .38-.29.67-.65.66z"/></g></g></svg>