<svg xmlns="http://www.w3.org/2000/svg" width="123.29" height="48.36" viewBox="0 0 123.29 48.36"><path d="M60.89 26.74c.89 0 1.68.19 2.37.56.69.37 1.23.89 1.62 1.57.39.67.58 1.44.58 2.32 0 1.3-.43 2.37-1.28 3.2-.85.83-1.95 1.25-3.29 1.25h-6.1V21.67h9.44v3.41h-5.75v1.66h2.41zm-.7 5.8c.4 0 .73-.13.99-.38s.39-.59.39-1c0-.4-.13-.73-.38-.98s-.59-.38-1-.38h-1.72v2.73h1.72zm21.23-11.23c2.18 0 3.97.68 5.37 2.04 1.4 1.36 2.09 3.13 2.09 5.31 0 2.18-.7 3.95-2.1 5.31-1.4 1.36-3.21 2.03-5.42 2.03-1.2 0-2.29-.23-3.28-.69a6.581 6.581 0 0 1-2.47-1.95c-.66-.84-1.1-1.82-1.33-2.94h-1.34v5.23h-3.85V21.67h3.85v5.19h1.34c.24-1.12.69-2.1 1.35-2.93.66-.84 1.48-1.48 2.47-1.94.99-.45 2.09-.68 3.32-.68zm-.08 11.09c1.05 0 1.91-.35 2.57-1.05.66-.7 1-1.6 1-2.7 0-.72-.15-1.36-.45-1.93a3.28 3.28 0 0 0-1.27-1.34c-.55-.32-1.16-.48-1.86-.48-1.05 0-1.91.35-2.58 1.05-.67.7-1.01 1.6-1.01 2.7 0 .73.15 1.38.46 1.95.31.56.73 1.01 1.28 1.33.55.31 1.16.47 1.86.47zm16.47-10.73c1.49 0 2.72.48 3.7 1.43s1.47 2.16 1.47 3.62-.49 2.67-1.48 3.63-2.21 1.44-3.69 1.44h-2.09v3.85h-3.85V21.67h5.94zm-.45 6.74c.49 0 .89-.16 1.21-.47.31-.31.47-.72.47-1.23 0-.32-.07-.61-.21-.87-.14-.26-.34-.46-.59-.61-.25-.15-.55-.22-.88-.22h-1.64v3.39h1.64zm15.08 7.58c-2.25 0-4.09-.69-5.54-2.06-1.44-1.38-2.16-3.13-2.16-5.28 0-2.14.72-3.9 2.16-5.28s3.29-2.07 5.54-2.07c2.23 0 4.07.69 5.51 2.07 1.44 1.38 2.15 3.14 2.15 5.28s-.72 3.9-2.15 5.28c-1.44 1.37-3.28 2.06-5.51 2.06zm-2.64-4.64c.7.7 1.58 1.06 2.64 1.06s1.94-.35 2.62-1.06c.69-.7 1.03-1.6 1.03-2.7 0-1.09-.34-1.99-1.03-2.69s-1.56-1.06-2.62-1.06-1.94.35-2.64 1.06c-.7.7-1.05 1.6-1.05 2.69 0 1.09.35 1.99 1.05 2.7zM55.93 46.67c-.26-.11-.48-.25-.67-.44-.19-.19-.34-.41-.44-.67a2.13 2.13 0 0 1-.16-.84 2.13 2.13 0 0 1 .6-1.51c.19-.19.41-.34.67-.44.26-.11.54-.16.83-.16.45 0 .83.11 1.14.33.31.22.55.51.71.88h-.86a1.196 1.196 0 0 0-.99-.49 1.274 1.274 0 0 0-1.2.84c-.07.17-.1.35-.1.55 0 .2.03.39.1.55.07.17.16.32.27.44a1.274 1.274 0 0 0 .93.4c.29 0 .53-.08.72-.23.19-.15.31-.36.38-.62h-1.32v-.72h2.19c0 .35-.05.67-.15.95-.1.28-.24.52-.41.72-.18.2-.38.35-.62.46-.24.11-.5.16-.79.16-.29 0-.57-.06-.83-.16zm4.86.08v-4.07h.8v4.07h-.8zm3.88-2.4h2.01v.72h-2.01v1.68h-.8v-4.07h2.86v.72h-2.05v.95zm7.24-.96h-1.32v3.35h-.8v-3.35h-1.33v-.72h3.46v.72zm2.75 3.34c-.21-.06-.38-.15-.53-.25s-.27-.24-.37-.38c-.1-.15-.17-.31-.23-.48h.82c.09.17.23.3.41.37.18.08.39.12.62.12.26 0 .46-.05.62-.14.16-.1.24-.22.24-.38 0-.15-.05-.26-.16-.34-.11-.08-.28-.13-.52-.15l-.7-.07c-.21-.02-.39-.06-.55-.13-.15-.07-.28-.15-.37-.25-.1-.1-.17-.22-.21-.35a1.274 1.274 0 0 1 .04-.94c.08-.15.18-.29.32-.4.14-.11.31-.2.51-.26s.42-.1.67-.1c.25 0 .48.03.68.1.2.07.38.16.52.27.15.11.27.24.37.39.1.15.17.29.22.44h-.82a.786.786 0 0 0-.38-.36c-.19-.09-.39-.13-.61-.13-.27 0-.47.05-.6.16s-.2.23-.2.37c0 .14.05.24.15.32.1.08.25.13.43.15l.75.07c.39.04.7.17.92.37.22.21.33.47.33.79a1.117 1.117 0 0 1-.41.88c-.14.12-.31.21-.52.28-.21.07-.45.11-.72.11-.28.02-.52-.02-.72-.08zm9.78.02l-.54-.47c-.17.17-.35.3-.55.4-.19.1-.41.15-.66.15-.21 0-.4-.03-.56-.09-.16-.06-.29-.14-.4-.25a.916.916 0 0 1-.24-.35 1.14 1.14 0 0 1-.08-.4c0-.13.02-.24.05-.34.03-.1.08-.2.15-.28.06-.09.14-.17.22-.24.09-.08.18-.15.28-.23l-.05-.05c-.06-.05-.11-.11-.17-.17-.06-.06-.11-.13-.15-.21s-.08-.15-.11-.24a.766.766 0 0 1-.04-.27c0-.18.03-.33.1-.47.07-.14.16-.25.27-.34a1.278 1.278 0 0 1 .81-.28c.18 0 .34.03.49.08.15.05.28.12.39.22.11.09.19.21.25.34.06.14.09.28.09.45 0 .11-.02.21-.06.3-.04.09-.08.18-.14.26-.06.08-.12.15-.2.22-.08.07-.15.14-.23.2l-.1.08.59.53 1.13-1.2v.98l-.64.69 1.12 1.01h-1.02zm-1.36-.73c.12-.07.22-.15.32-.24l-.74-.66-.13.1c-.04.03-.08.07-.13.1-.04.03-.08.07-.12.11a.38.38 0 0 0-.12.28c0 .11.05.2.14.28.09.08.22.12.39.12.14.01.27-.02.39-.09zm-.44-2.72c-.05.02-.1.04-.14.07s-.08.07-.11.12c-.03.05-.04.11-.04.17 0 .09.03.17.1.25.07.08.13.15.19.21l.14.13.21-.16c.1-.07.17-.15.21-.22a.42.42 0 0 0 .06-.21c0-.11-.05-.2-.14-.27a.472.472 0 0 0-.33-.11c-.04 0-.09 0-.15.02zm8.08 1.05h2.01v.72h-2.01v.96h2.05v.72h-2.86v-4.07h2.86v.72h-2.05v.95zm4.64-1.67l1.27 3 1.27-3h.82L97 46.75h-.78l-1.72-4.07h.86zm6 1.67h2.01v.72h-2.01v.96h2.05v.72h-2.86v-4.07h2.86v.72h-2.05v.95zm7.92 2.4h-.87l-2.02-2.86v2.86h-.8v-4.07h.87l2.02 2.86v-2.86h.8v4.07zm5.4-3.36h-1.32v3.35h-.8v-3.35h-1.33v-.72h3.46v.72zm2.75 3.34c-.21-.06-.38-.15-.53-.25s-.27-.24-.37-.38c-.1-.15-.17-.31-.23-.48h.82c.09.17.23.3.41.37.18.08.39.12.62.12.26 0 .46-.05.62-.14.16-.1.24-.22.24-.38 0-.15-.05-.26-.16-.34-.11-.08-.28-.13-.52-.15l-.7-.07c-.21-.02-.39-.06-.55-.13-.15-.07-.28-.15-.37-.25-.1-.1-.17-.22-.21-.35a1.274 1.274 0 0 1 .04-.94c.08-.15.18-.29.32-.4.14-.11.31-.2.51-.26s.42-.1.67-.1c.25 0 .48.03.68.1.2.07.38.16.52.27.15.11.27.24.37.39.1.15.17.29.22.44h-.82a.786.786 0 0 0-.38-.36c-.19-.09-.39-.13-.61-.13-.27 0-.47.05-.6.16s-.2.23-.2.37c0 .14.05.24.15.32.1.08.25.13.43.15l.75.07c.39.04.7.17.92.37.22.21.33.47.33.79a1.117 1.117 0 0 1-.41.88c-.14.12-.31.21-.52.28-.21.07-.45.11-.72.11-.28.02-.52-.02-.72-.08zM27.65 20.72V8.32H16.97l5.09-5.09L19.7.88l-5.87 5.87L7.94.86 5.59 3.21l5.11 5.11H0v27.65h12.61v12.4h27.65V20.72H27.65zm9.29 3.32v8.6h-9.29v-8.6h9.29zm-21 8.6v-8.6h8.38v8.6h-8.38zm-12.62 0v-21h21v9.08H12.61v11.92H3.32zm12.62 3.32h8.38v9.08h-8.38v-9.08zm11.71 9.08v-9.08h9.29v9.08h-9.29z"/></svg>