<svg id="Слой_1" xmlns="http://www.w3.org/2000/svg" width="94.43" height="60.29" viewBox="0 0 94.43 60.29"><style>.st0{fill:#fff}.st1{fill:#a8a8a8}.st2{fill:#302682}</style><path class="st0" d="M3.26 38.99l.05-.01-.07-.03z"/><path d="M48.31 7.73h-4.3V6.1h4.3v1.63zm-3.97-.34h3.64v-.95h-3.64v.95z"/><path d="M44.17 6.27h3.97v1.29h-3.97z"/><path d="M43.58 19.41l-.41-.07 2.06-11.99.41.07-.13.73 1.35-.87.08.12.33-.06 1.71 10.23-.41.07-.22-1.34-4.53 1.83-.24 1.28zm.69-3.98l-.38 2.21 4.38-1.77-.07-.44h-3.93zm.07-.43h3.78l-.33-2-3.2.6-.25 1.4zm.69-4.05l-.38 2.2 2.46-.46-2.08-1.74zm.48-.15l2.22 1.85-.52-3.09-1.7 1.24zm-.07-2.21l-.34 1.98 1.59-1.16-1.25-.82zm.47-.2l1.24.82-.24-1.46-1 .64z"/><path d="M47.33.11C21.36.11.24 13.59.24 30.16c0 16.52 21.13 29.95 47.09 29.95 25.87 0 46.91-13.44 46.91-29.95C94.24 13.59 73.2.11 47.33.11m0 .85c12.28 0 23.86 3.07 32.6 8.64 4.38 2.79 7.77 6.04 10.05 9.56-12.52-5.62-26.71-6.54-43.29-.8-14.85 4.85-30.36 5.48-42.05.56C11.64 8.38 28.14.96 47.33.96m24.82 24.5c0 1.84.18 3.14.45 3.97.27.83.63 1.2 1.17 1.29 1.08.09 1.26-1.66 1.26-2.95-.45 0-.81-.09-1.26-.09 0-.92 0-1.85-.09-2.77.9.09 1.81.19 2.71.28 0 .55.09 1.11.09 1.75 0 .83 0 1.56.09 2.39 0 1.39 0 2.77.09 4.15h-.18c-.36 0-.72-.09-.99-.09-.09-.56-.09-1.11-.09-1.66-.36 1.66-1 2.03-1.72 1.93-.54 0-1.35-.27-1.99-1.38-.63-1.2-1.17-3.23-1.26-7.01-.09-1.84 0-3.88.45-5.44.45-1.48 1.26-2.58 2.53-2.4.63 0 1.26.27 1.8 1.11.54.92.9 2.31 1.08 4.61-.54-.09-1.08-.18-1.62-.18-.09-2.4-.9-2.58-1.17-2.58-.27 0-.72.09-.99.83-.27.64-.45 1.93-.36 4.24m4.34-5.91c-.09-.46-.18-.92-.18-1.38h.18c.45.09.9.18 1.44.18l.54 5.53c.18 1.84.45 3.6.63 5.44.09-1.75.18-3.51.27-5.35.18-1.75.27-3.51.36-5.26.45 0 .99.09 1.44.18l.54 5.54c.27 1.84.45 3.69.63 5.53.09-1.75.18-3.6.27-5.35.18-1.75.27-3.51.36-5.26.54.09 1.08.18 1.63.37.54.09.99.28 1.53.37 0 1.48 0 2.95.09 4.43v4.43c.09 3.04.36 3.97 1.17 4.15.72.19.99-.55.99-3.5 0-1.48-.09-2.95-.09-4.43v-4.43c.45.09.99.27 1.53.46v9.41c0 1.66-.09 3.23-.45 4.24-.36 1.01-.99 1.47-1.99 1.2-1.08-.28-1.71-1.11-2.08-2.31-.36-1.29-.54-2.86-.54-4.52 0-1.57-.09-3.23-.09-4.8 0-1.57-.09-3.14-.09-4.71-.27 2.49-.45 4.98-.63 7.47-.18 2.49-.45 4.98-.63 7.47-.54-.09-1.08-.28-1.63-.37l-.54-5.53c-.18-1.84-.45-3.69-.63-5.63-.09 1.85-.18 3.6-.27 5.45-.18 1.85-.27 3.59-.36 5.44-.54-.09-1.08-.19-1.62-.28-.36-2.58-.72-5.26-.99-7.84-.25-2.1-.52-4.22-.79-6.34m-6.86 10.7c-.36 1.75-1.08 3.23-2.62 3.23h-.18c-1.36-.09-2.17-1.47-2.62-3.14-.45-1.75-.54-3.78-.54-4.98 0-1.1 0-3.23.36-4.98.45-1.75 1.18-3.32 2.62-3.32h.18c1.35.18 2.17 1.57 2.62 3.32.45 1.75.54 3.78.54 4.98.09 1.11.09 3.14-.36 4.89m-10.21.56v2.86c-.54.1-1.17.19-1.71.28V18.08c.9-.09 1.81-.18 2.71-.28h.54c.9-.09 1.44.46 1.72 1.29.36.83.45 1.94.45 2.95.09 1.47-.27 3.69-1.08 3.97v.19c.81.09.9 1.01.9 2.4 0 1.29 0 3.04.45 4.61-.54.09-1.08.09-1.71.18-.27-1.11-.18-1.84-.27-3.97-.09-1.84-.72-1.66-.99-1.66-.36 0-.72.09-1.08.09.07 1.02.07 1.94.07 2.96m-30.23-3.42v5.9c-.09 1.01-.09 2.03-.09 3.04v2.95c-.72.09-1.35.09-1.99.09V35.7c0-1.2 0-2.4.09-3.69v-3.69c0-1.2 0-2.4.09-3.69 2.17-.18 4.42-.36 6.68-.74 0 1.29-.09 2.49-.09 3.78v3.78c0 1.29-.09 2.49-.09 3.78v3.78c-.72.09-1.35.09-1.99.09v-6c.09-1.01.09-2.03.09-3.04v-2.95c-.9.1-1.8.19-2.7.28m-7.5 8.95c.36.64.81.74 1.17.74.81 0 1.35-.65 1.53-2.77.63 0 1.35-.09 1.98-.09-.18 1.85-.45 3.32-1.08 4.24-.63 1.01-1.44 1.48-2.62 1.48-1.17 0-2.08-.47-2.8-1.75-.27-.56-.54-1.39-.72-2.31-.18-1.01-.27-2.12-.27-3.5 0-.92.09-1.85.18-2.77.18-.92.36-1.84.63-2.58.54-1.57 1.53-2.58 3.07-2.58 1.71-.09 2.53.92 3.07 2.12.45 1.11.45 2.49.45 3.14-.63 0-1.26.09-1.89.09-.18-2.12-.72-2.58-1.53-2.49-.27 0-.72.09-1.09.74-.36.65-.72 1.94-.72 4.25.01 2.2.28 3.4.64 4.04m-2.88-11.53v2.77c-1.09 0-2.26-.09-3.34-.19v5.9c0 1.01 0 1.94-.09 2.95v2.95c-.63-.09-1.26-.18-1.98-.28v-7.29c0-1.2 0-2.49.09-3.69v-3.6c1.7.2 3.51.3 5.32.48M7.43 31.36c-.09 1.02 0 2.03-.09 3.04 0 1.01.09 2.03 0 3.04-.63-.19-1.26-.46-1.99-.74V22.69c.72.18 1.35.37 1.99.55.09.83 0 1.75 0 2.68.09.83 0 1.75 0 2.68.9.18 1.81.37 2.62.64v-5.45c.72.09 1.35.19 2.08.28 0 1.29-.09 2.49-.09 3.69v10.89c-.63-.09-1.26-.28-1.98-.37v-6.27c-.82-.19-1.73-.46-2.54-.65m39.9 27.89c-20.61 0-38.11-8.52-44.07-20.26l-.02-.05.07.04c12.75 6.38 27.71 5.53 43.39 1.05 16.68-5.87 31.32-5.9 44.08-.2-6.34 11.3-23.42 19.42-43.45 19.42"/><path d="M60.6 24.81c.36 0 .9-.19.9-2.03 0-1.66-.45-1.94-.99-1.94h-.09c-.36.1-.72.1-1.08.18v3.97c.36-.09.72-.09 1.08-.09l.18-.09zm6.23-4.7h-.09c-.45 0-.81.28-.99 1.01-.27.83-.36 2.12-.36 4.24.09 2.31.27 3.6.54 4.24.27.65.63.83.9.83h.18c.27 0 .63-.1.9-.83.27-.74.45-2.03.45-4.34-.09-2.03-.27-3.32-.54-4.15-.27-.64-.63-.91-.99-1"/><path class="st1" d="M45.61 6.27c-.09-.92-1.08-1.84-.27-2.86.27-.46.36-1.11 0-1.84l.54.37c1.81 1.11 2.17 2.49.45 4.25l-.72.08z"/><path d="M45.47 6.46l-.02-.17c-.03-.28-.15-.56-.27-.86-.27-.64-.57-1.36.04-2.12.15-.27.37-.86-.02-1.66l-.28-.56 1.06.71c.99.6 1.53 1.29 1.62 2.04.09.76-.29 1.59-1.15 2.46l-.04.04-.94.12zm.21-4.47c.18.69-.03 1.22-.19 1.5-.5.62-.27 1.17-.01 1.8.11.26.22.52.27.79l.51-.06c.75-.78 1.09-1.5 1.01-2.14-.08-.64-.57-1.25-1.47-1.8l-.12-.09z"/><path class="st2" d="M45.61 6.27c-.03-.31-.16-.62-.29-.91-.26-.62-.53-1.27.02-1.95.18-.31.43-.97 0-1.84l-.01-.02.56.38c.95.58 1.47 1.23 1.55 1.93.09.71-.29 1.49-1.1 2.33l-.73.08zm-.25-4.69c.42.86.17 1.52-.01 1.83-.55.68-.28 1.32-.02 1.94.13.3.25.6.29.9l.71-.09c.81-.83 1.18-1.61 1.1-2.32-.08-.69-.6-1.34-1.55-1.92l-.52-.34z"/><path class="st1" d="M47.33 59.25c-20.61 0-38.11-8.52-44.07-20.26l-.02-.04.07.04c12.75 6.38 27.71 5.53 43.39 1.05 16.68-5.87 31.32-5.9 44.08-.2-6.34 11.29-23.42 19.41-43.45 19.41"/><path class="st0" d="M47.22 20.25c4.89 0 8.78 4.06 8.78 9.06 0 4.91-3.89 8.98-8.78 8.98-4.81 0-8.78-4.06-8.78-8.98 0-5 3.97-9.06 8.78-9.06"/><path class="st1" d="M47.22 38.49c-4.96 0-8.99-4.12-8.99-9.19 0-5.11 4.03-9.27 8.99-9.27s8.99 4.16 8.99 9.27c-.01 5.07-4.04 9.19-8.99 9.19m0-18.03c-4.73 0-8.57 3.97-8.57 8.84 0 4.83 3.85 8.76 8.57 8.76 4.73 0 8.57-3.93 8.57-8.76 0-4.87-3.85-8.84-8.57-8.84"/><path d="M47.21 20.23c-5.11.85-4.84 6.96-.07 8.82 6.3 1.01 5.96 7.79 0 9.14-11.66-1.04-11.4-17.96.07-17.96"/><path class="st1" d="M47.13 38.41h-.02c-6.32-.57-9-5.54-8.82-9.92.1-2.26.94-4.34 2.38-5.86 1.61-1.7 3.87-2.61 6.53-2.61l.21.2-.18.23c-2.04.34-3.37 1.6-3.54 3.37-.24 2.41 1.64 4.3 3.49 5.03 3.42.56 4.7 2.66 4.75 4.44.06 1.99-1.39 4.35-4.76 5.11l-.04.01zm-1.69-17.82c-4.43.75-6.57 4.35-6.72 7.92-.18 4.18 2.37 8.92 8.4 9.47 3.12-.72 4.46-2.87 4.4-4.68-.05-1.62-1.24-3.53-4.42-4.04l-.04-.01c-2.45-.96-4.01-3.22-3.78-5.48.14-1.41.92-2.52 2.16-3.18"/></svg>