<svg xmlns="http://www.w3.org/2000/svg" width="50.13" height="85.39" viewBox="0 0 50.13 85.39"><path d="M24.55 79.9h.03l1.01 2.86H23.5l1.05-2.86zm-.35-.88l-2.31 6.07h.79l.59-1.62h2.59l.58 1.62h.81l-2.27-6.07h-.78zm3.65 0v.73h1.79v5.34h.78v-5.34h1.79v-.73zm17.67 0l-1.6 5.22-1.64-5.22h-.95l-.52 6.07h.78l.38-4.73 1.53 4.73h.81l1.53-4.74.37 4.74h.78l-.52-6.07zM.07 73.38h49.95v.52H.07zm13.66-7.96h2.6l-1.26-3.56h-.04l-1.3 3.56zm2.91.88h-3.23l-.74 2.03h-.98l2.88-7.58h.97l2.83 7.58h-1.02l-.71-2.03zm27.91 2.03h-.97v-3.49h-3.83v3.49h-.97v-7.58h.97v3.2h3.83v-3.2h.97zM29.14 28.81a5.215 5.215 0 0 1-7.39.37c-2.14-1.95-2.3-5.28-.37-7.43a5.224 5.224 0 0 1 7.39-.37c2.14 1.95 2.3 5.27.37 7.43m-16-3.35s2.91-1.49 4.6-8.1c1.69-6.61 7.97-9.69 7.97-9.69S12.22-5.76 2 15.31c0 0 8.33 1.64 11.14 10.15"/><path d="M14.37 2.5S24.77.45 30.93 13.52c0 0 7.18 2.33 13.49-4.36 0 0-10.55-14.48-30.05-6.66m16.97 32.86s-2.74-1.79-9.29.06C15.5 37.27 9.7 33.34 9.7 33.34S4.85 51.77 28.15 50.11c0 0-2.75-8.05 3.19-14.75"/><path d="M10.9 45.78s-6.97-8.01 1.23-19.89c0 0-1.58-7.4-10.51-9.54 0 0-7.22 16.41 9.28 29.43m19.92-31.09s-.17 3.27 4.7 8.04S39.9 34.5 39.9 34.5s18.34-5.01 5.25-24.42c0 0-5.57 6.42-14.33 4.61"/><path d="M50.04 27.22s-3.43 10.06-17.79 8.88c0 0-5.6 5.07-2.98 13.9.01 0 17.79-1.93 20.77-22.78m-24.7 40.2v-5.76h-2.43c0 .02 0 .06-.01.11s-.01.11-.01.17c0 .06 0 .11-.01.16 0 .05-.01.09-.01.11-.02.47-.05.94-.09 1.42-.04.48-.1.94-.17 1.39-.08.45-.17.88-.29 1.29-.12.41-.26.78-.43 1.11h3.45zm1.84 2.6h-.98v-1.69h-5.07v1.69h-.97v-2.6h.75c.22-.39.4-.81.54-1.26.13-.45.24-.93.31-1.44.08-.51.13-1.04.16-1.59s.06-1.12.07-1.7l.02-.68h4.3v6.67h.86v2.6zm5.57-2.49c.71 0 1.27-.25 1.68-.75s.61-1.25.61-2.24c0-.52-.06-.97-.17-1.34-.11-.37-.27-.69-.48-.93s-.46-.43-.76-.54c-.3-.11-.64-.17-1.01-.17-.33 0-.64.06-.93.18-.29.12-.54.31-.75.55-.21.25-.37.56-.5.93-.12.38-.18.82-.18 1.32 0 .5.06.94.18 1.31.12.38.29.69.5.94.22.25.48.44.78.56.32.12.66.18 1.03.18m-.1.91c-.53 0-1-.09-1.42-.27-.42-.18-.78-.44-1.08-.77-.3-.34-.53-.75-.69-1.23-.16-.48-.24-1.03-.24-1.63 0-.61.08-1.15.25-1.63.17-.48.4-.89.7-1.22.3-.34.66-.59 1.08-.77.42-.18.87-.27 1.37-.27.56 0 1.06.1 1.48.29.43.19.79.46 1.08.8.29.34.51.75.66 1.23.15.48.23 1.01.23 1.58 0 .64-.09 1.21-.26 1.7s-.41.89-.71 1.22c-.3.32-.66.57-1.08.74-.41.15-.87.23-1.37.23M6.51 64.63h1.17c.61 0 1.06-.12 1.38-.37.31-.25.47-.62.47-1.13 0-.52-.16-.9-.47-1.13-.31-.23-.77-.35-1.38-.35H6.51v2.98zm0 3.7h-.97v-7.58h2.23c.43 0 .82.05 1.16.14.34.09.64.23.88.43.25.2.43.44.56.74.13.3.19.65.19 1.06 0 .79-.25 1.39-.76 1.8-.51.42-1.22.62-2.12.62H6.51v2.79zm5.07 16.12c.57 0 1.02-.2 1.34-.6.33-.4.49-1 .49-1.79 0-.42-.04-.77-.13-1.08-.09-.3-.22-.55-.38-.75-.17-.2-.37-.34-.61-.43-.24-.09-.51-.14-.81-.14-.27 0-.51.05-.74.15s-.43.25-.6.44c-.17.2-.3.45-.4.75-.1.3-.15.65-.15 1.06 0 .4.05.75.14 1.05.09.3.23.55.4.75.17.2.38.35.63.45.25.09.52.14.82.14m-.08.73c-.42 0-.8-.07-1.14-.22-.34-.14-.62-.35-.86-.62s-.42-.6-.55-.99c-.13-.39-.19-.82-.19-1.3 0-.49.07-.92.2-1.3s.32-.71.56-.98c.24-.27.53-.48.86-.62.33-.14.7-.22 1.1-.22.45 0 .85.08 1.19.23.34.15.63.37.86.64.23.27.41.6.53.99.12.38.18.81.18 1.26 0 .52-.07.97-.21 1.36-.14.39-.33.72-.57.98-.24.26-.53.46-.87.59-.32.13-.69.2-1.09.2m8.91-.25c-.17.08-.36.14-.59.19-.22.04-.47.07-.74.07-.47 0-.9-.07-1.27-.21-.37-.14-.69-.35-.95-.61-.26-.27-.46-.59-.6-.96s-.21-.79-.21-1.26c0-.51.07-.97.21-1.37.14-.4.34-.73.6-1.01.26-.27.57-.48.94-.62s.77-.21 1.22-.21c.35 0 .63.02.84.07.22.05.4.1.54.16l-.15.69a2.91 2.91 0 0 0-.58-.15c-.2-.03-.39-.04-.58-.04-.72 0-1.27.2-1.65.61-.38.41-.57 1-.57 1.79 0 .38.05.71.16 1.01.11.3.26.55.45.75.2.21.44.36.72.47.28.11.6.16.96.16.19 0 .38-.02.57-.05.19-.03.37-.09.52-.16l.16.68zm-16.54-2.8h.93c.49 0 .85-.1 1.1-.29.25-.2.38-.5.38-.9 0-.42-.13-.72-.38-.9s-.62-.28-1.1-.28h-.93v2.37zm0 2.96h-.78v-6.07h1.78c.35 0 .66.04.93.11s.51.19.71.34c.2.16.35.35.45.59.1.24.16.52.16.85 0 .63-.2 1.11-.61 1.45-.41.33-.97.5-1.7.5h-.94v2.23zm32.46-.64c.57 0 1.02-.2 1.34-.6.33-.4.49-1 .49-1.79 0-.42-.04-.77-.13-1.08-.09-.3-.22-.55-.39-.75-.17-.2-.37-.34-.61-.43-.24-.09-.51-.14-.81-.14-.27 0-.51.05-.74.15-.23.1-.43.25-.6.44-.17.2-.3.45-.4.75-.1.3-.15.65-.15 1.06 0 .4.05.75.14 1.05.09.3.23.55.4.75.17.2.38.35.63.45.26.09.53.14.83.14m-.08.73c-.42 0-.8-.07-1.14-.22-.34-.14-.63-.35-.86-.62-.24-.27-.42-.6-.55-.99-.13-.39-.19-.82-.19-1.3 0-.49.07-.92.2-1.3s.32-.71.56-.98c.24-.27.53-.48.86-.62.33-.14.7-.22 1.1-.22.45 0 .85.08 1.19.23.34.15.63.37.86.64.23.27.41.6.53.99.13.39.19.81.19 1.27 0 .52-.07.97-.21 1.36-.14.39-.33.72-.57.98-.24.26-.53.46-.87.59s-.7.19-1.1.19"/></svg>