<svg xmlns="http://www.w3.org/2000/svg" width="132" height="31" viewBox="0 0 132 31"><path d="M16.63.17l7.34 4.15 7.35 4.16a1.276 1.276 0 0 1 .62.81h.05v16.93a1.303 1.303 0 0 1-.77 1.19l-3.6 2.04-.47.26v-2.97l.16-.09 2.08-1.18V10.35L22.7 6.57l-6.72-3.8-6.72 3.8-6.69 3.78v15.12l2.08 1.18.16.09v2.97l-.47-.26-3.7-2.1a1.276 1.276 0 0 1-.62-.81H0V9.6a1.303 1.303 0 0 1 .77-1.18l7.24-4.1L15.36.16c.2-.11.42-.16.64-.16.22 0 .44.06.63.17m7.81 29.7c0 .31-.13.59-.33.8-.2.2-.49.33-.8.33-.31 0-.59-.13-.8-.33-.2-.2-.33-.49-.33-.8v-4.51l-3.36-1.1-2.74-.9-2.74.87-3.54 1.14v4.42c0 .31-.13.59-.33.8-.2.2-.49.33-.8.33-.31 0-.59-.13-.8-.33-.2-.2-.33-.49-.33-.8v-5.46h.03a1.14 1.14 0 0 1 .77-.86l3.98-1.27c-.75-.39-1.43-.89-2.02-1.48A7.99 7.99 0 0 1 7.92 15c0-2.24.9-4.26 2.36-5.72s3.48-2.37 5.71-2.37 4.25.91 5.71 2.37 2.36 3.49 2.36 5.72-.9 4.26-2.36 5.72a7.79 7.79 0 0 1-1.96 1.45l3.86 1.28c.24.06.45.21.6.4.15.19.24.43.24.69v5.33zm-4.52-18.8c-1.01-1.01-2.39-1.63-3.93-1.63s-2.92.62-3.93 1.63c-1 1.01-1.63 2.4-1.63 3.94s.62 2.93 1.63 3.94a5.54 5.54 0 0 0 3.93 1.63c1.53 0 2.92-.62 3.93-1.63a5.546 5.546 0 0 0 1.63-3.94c0-1.54-.62-2.94-1.63-3.94m25.92 3.21V5.86h-3.77v8.42h-2.03V4.03h7.86v10.24h-2.06zM52.1 8.6h2.08c.46 0 .82-.13 1.05-.39.24-.26.36-.58.36-.97 0-.4-.12-.73-.36-.99s-.59-.39-1.05-.39H52.1V8.6zm2.54-4.57c.5 0 .94.1 1.3.29.37.19.67.44.91.75s.42.65.53 1.03c.11.38.17.76.17 1.12 0 .38-.07.75-.2 1.13-.13.38-.33.72-.58 1.02-.25.31-.56.56-.93.75-.37.19-.79.29-1.27.29H52.1v3.85h-2.03V4.03h4.57zm12.21 6.98c0 .56-.1 1.04-.31 1.46a3.1 3.1 0 0 1-.84 1.05c-.35.29-.77.5-1.25.65-.48.14-.98.22-1.52.22-.53 0-1.04-.07-1.52-.22-.48-.14-.89-.36-1.25-.65-.36-.29-.64-.64-.84-1.05-.21-.42-.31-.9-.31-1.46V7.24c0-.54.11-1.03.33-1.44.22-.42.51-.76.87-1.04.37-.28.79-.49 1.26-.62a5.104 5.104 0 0 1 2.93.01c.47.15.89.36 1.26.65a3.064 3.064 0 0 1 1.2 2.5v3.71zm-2.03-3.35c0-.34-.05-.62-.16-.85-.11-.23-.25-.42-.43-.57-.18-.15-.38-.26-.6-.33a2.38 2.38 0 0 0-.7-.11c-.24 0-.47.04-.7.11a1.652 1.652 0 0 0-1.04.9c-.11.23-.16.52-.16.85v2.99c0 .34.05.62.16.86s.25.43.43.58c.18.15.38.26.61.32.23.06.46.1.7.1.24 0 .47-.03.69-.1a1.587 1.587 0 0 0 1.03-.9c.11-.24.16-.53.16-.86V7.66zm10.19-3.2c.57.02 1.11.12 1.6.31a3.816 3.816 0 0 1 2.12 1.94c.2.45.3.94.3 1.48v1.43c0 .55-.1 1.05-.3 1.5-.2.46-.47.86-.83 1.19-.36.34-.78.6-1.27.8s-1.03.3-1.62.3v.86h-2.03v-.86c-.6-.03-1.15-.14-1.65-.34-.49-.2-.92-.46-1.27-.79s-.62-.71-.82-1.16c-.19-.44-.29-.94-.29-1.49V8.19c0-.54.11-1.03.32-1.48.21-.45.5-.84.86-1.16.36-.33.79-.58 1.27-.77.49-.19 1.01-.29 1.56-.31v-.54h2.03v.53zm2.03 3.94c0-.64-.19-1.15-.56-1.52-.38-.37-.86-.56-1.47-.58v5.29c.58-.02 1.07-.21 1.45-.58.39-.37.58-.87.58-1.52V8.4zm-6.1 1.09c0 .32.05.61.16.86.11.26.25.48.44.66.18.18.4.31.65.41.25.1.51.15.79.16V6.29c-.28.01-.54.06-.79.16s-.46.24-.65.42c-.18.18-.33.4-.44.66-.1.26-.16.55-.16.87v1.09zM87.2 6.51c-.32-.27-.66-.45-1.02-.56-.37-.11-.72-.16-1.07-.16-.23 0-.46.03-.68.1-.23.07-.43.18-.61.33-.18.15-.32.34-.44.58-.11.24-.17.53-.17.86v2.99c0 .34.06.62.17.85.11.23.26.42.44.57.18.15.39.26.61.33.22.07.45.1.68.1.35 0 .69-.05 1.05-.15.35-.1.7-.29 1.06-.57l.96 1.58c-.38.32-.83.57-1.38.74-.54.18-1.12.27-1.72.27-.49 0-.96-.07-1.42-.21-.46-.14-.88-.35-1.24-.62-.37-.27-.66-.61-.89-1.03-.23-.41-.34-.89-.34-1.45V7.24c0-.54.11-1.02.33-1.43.22-.41.51-.76.87-1.03.36-.28.77-.49 1.24-.63.46-.14.94-.21 1.42-.21.59 0 1.16.08 1.71.24.55.16 1.02.41 1.42.76l-.98 1.57zm10.53 4.5c0 .56-.1 1.04-.31 1.46a3.1 3.1 0 0 1-.84 1.05c-.36.29-.77.5-1.25.65-.48.14-.98.22-1.52.22-.53 0-1.04-.07-1.52-.22-.48-.14-.89-.36-1.25-.65-.36-.29-.64-.64-.84-1.05-.21-.42-.31-.9-.31-1.46V7.24c0-.54.11-1.03.33-1.44.22-.42.51-.76.87-1.04.37-.28.79-.49 1.26-.62.47-.14.96-.21 1.47-.21s.98.07 1.46.22c.47.15.89.36 1.26.65a3.064 3.064 0 0 1 1.2 2.5v3.71zM95.7 7.66c0-.34-.05-.62-.16-.85-.11-.23-.25-.42-.43-.57-.18-.15-.38-.26-.6-.33-.22-.07-.45-.11-.69-.11-.24 0-.47.04-.7.11a1.652 1.652 0 0 0-1.04.9c-.11.23-.16.52-.16.85v2.99c0 .34.05.62.16.86s.25.43.43.58c.18.15.38.26.61.32.23.06.46.1.7.1.24 0 .47-.03.69-.1a1.587 1.587 0 0 0 1.03-.9c.11-.24.16-.53.16-.86V7.66zm14.87 3.35c0 .56-.09 1.04-.28 1.46-.19.42-.45.77-.78 1.05-.33.29-.73.5-1.18.65-.46.14-.95.22-1.49.22-.53 0-1.03-.07-1.48-.22a3.23 3.23 0 0 1-1.18-.65c-.33-.29-.59-.64-.78-1.05-.19-.42-.28-.9-.28-1.46V9.99h-1.14v4.28h-2.03V4.03h2.03v4.13h1.14v-.9c0-.55.1-1.03.3-1.45.2-.42.46-.77.8-1.05s.73-.49 1.18-.63a4.924 4.924 0 0 1 2.88.01c.45.15.85.36 1.19.65.34.28.61.63.8 1.05.2.42.3.91.3 1.45v3.72zm-2.04-3.35c0-.66-.16-1.14-.49-1.43-.33-.29-.73-.43-1.2-.43s-.87.14-1.2.43c-.33.29-.49.76-.49 1.43v2.99c0 .34.05.62.13.86.09.24.21.43.36.58.15.15.33.26.53.32s.42.1.66.1c.47 0 .87-.14 1.2-.42.33-.28.49-.76.49-1.43v-3zm7.2-3.72c.46 0 .91.05 1.34.15.42.1.8.26 1.13.48.33.22.59.51.78.87.19.36.29.79.29 1.31 0 .5-.13.94-.38 1.32-.25.39-.59.68-1.02.88.49.19.87.49 1.12.89.25.41.38.85.38 1.34 0 .57-.11 1.05-.32 1.45-.21.4-.49.73-.85.99-.35.26-.76.45-1.22.57-.46.12-.94.18-1.45.18-.35 0-.69-.02-1.02-.07-.34-.05-.66-.11-.97-.2-.31-.09-.6-.2-.87-.33s-.5-.28-.7-.45l1.05-1.5c.15.12.32.22.52.32a4.618 4.618 0 0 0 1.26.37 3 3 0 0 0 .57.05c.63 0 1.11-.13 1.45-.39.33-.26.5-.61.5-1.05 0-.45-.15-.78-.46-1-.31-.22-.71-.33-1.22-.33h-1.36V8.2h1.3c.22 0 .42-.03.62-.09.19-.06.36-.15.51-.26a1.196 1.196 0 0 0 .49-.99c0-.22-.05-.4-.15-.56-.1-.15-.23-.27-.39-.36-.16-.1-.34-.16-.54-.2-.2-.04-.41-.06-.63-.06-.34 0-.71.06-1.11.19-.41.12-.75.31-1.04.56l-.99-1.45c.42-.33.92-.59 1.5-.77.58-.18 1.21-.27 1.88-.27m7.64 8.51h2.11c.46 0 .82-.13 1.09-.39.27-.26.41-.58.41-.97 0-.4-.14-.72-.41-.97-.27-.25-.64-.37-1.11-.37h-2.09v2.7zm-2.03 1.83V4.03h2.03v3.9h2.36c.5 0 .96.08 1.35.24.4.16.73.38 1.01.66s.49.61.64 1c.15.39.22.81.22 1.27 0 .38-.06.75-.18 1.13-.12.38-.3.72-.56 1.02-.25.3-.58.55-.97.75-.39.19-.87.29-1.44.29h-4.46zm10.6 0h-2.03V4.03h2.03v10.25zM47.83 24.69c0 .55-.1 1.04-.31 1.46-.21.42-.49.77-.84 1.06-.36.29-.77.5-1.25.65-.48.14-.98.22-1.52.22-.53 0-1.04-.07-1.52-.22-.48-.14-.9-.36-1.25-.65-.36-.29-.64-.64-.84-1.06-.21-.42-.31-.9-.31-1.46v-3.76c0-.54.11-1.03.33-1.44.22-.42.51-.76.87-1.04.37-.28.79-.49 1.26-.62a5.104 5.104 0 0 1 2.93.01c.47.15.89.36 1.26.65.37.28.66.63.87 1.06.22.42.33.9.33 1.45v3.69zm-2.03-3.35c0-.34-.05-.62-.16-.85-.11-.23-.25-.42-.43-.57-.18-.15-.38-.26-.6-.33-.22-.07-.45-.1-.69-.1-.24 0-.47.03-.7.1a1.652 1.652 0 0 0-1.04.9c-.11.23-.16.52-.16.85v2.99c0 .34.05.62.16.86s.25.43.43.58c.18.15.38.25.61.32.23.06.46.1.7.1.24 0 .47-.03.69-.1a1.587 1.587 0 0 0 1.03-.9c.11-.24.16-.52.16-.86v-2.99zm5.74.94h2.08c.47 0 .82-.13 1.05-.39.24-.26.36-.58.36-.97 0-.4-.12-.73-.36-.99s-.59-.39-1.05-.39h-2.08v2.74zm2.53-4.56c.5 0 .94.1 1.3.29.37.19.67.44.91.75s.42.65.53 1.03c.11.38.17.76.17 1.12a3.452 3.452 0 0 1-.78 2.16c-.25.31-.56.56-.93.75-.37.19-.79.29-1.27.29h-2.48v3.85h-2.03V17.72h4.58zm4.01 0h7.05v1.83h-5.01v2.35h4.29v1.83h-4.29v2.41h5.01v1.83h-7.05V17.72zm14.33 10.24v-4.28h-3.77v4.28h-2.03V17.72h2.03v4.13h3.77v-4.13h2.06v10.24h-2.06zm3.78-10.24h6.68v1.83h-4.64v2.07h2.33c.51 0 .97.08 1.37.24.4.16.74.38 1.02.66s.49.61.64 1c.15.39.22.81.22 1.27 0 .38-.06.76-.18 1.13s-.31.72-.56 1.02c-.26.3-.58.55-.99.75-.4.19-.88.29-1.45.29H76.2V17.72zm2.03 8.41h2.08c.45 0 .82-.13 1.11-.39.28-.26.42-.58.42-.97 0-.4-.14-.72-.42-.97-.28-.25-.66-.37-1.12-.37h-2.06v2.7zm11.3-.64c-.36.94-.76 1.61-1.22 2-.46.39-1.04.59-1.73.59h-1.08v-1.61h.92c.26 0 .46-.04.61-.13.15-.09.27-.24.37-.45l.06-.14.06-.12-3.23-7.92h2.12l1.22 3.33c.17.46.32.88.45 1.28s.24.72.33.98h.08l.82-2.38c.02-.06.06-.18.13-.35.06-.17.14-.37.21-.6.08-.23.16-.47.25-.71.09-.25.17-.48.25-.7.08-.22.15-.4.2-.56.05-.15.09-.25.1-.29h2.02l-2.94 7.78zm5.97-3.21h2.08c.46 0 .82-.13 1.05-.39.24-.26.36-.58.36-.97 0-.4-.12-.73-.36-.99s-.59-.39-1.05-.39h-2.08v2.74zm2.53-4.56c.5 0 .94.1 1.3.29.37.19.67.44.91.75s.42.65.53 1.03c.11.38.17.76.17 1.12a3.452 3.452 0 0 1-.78 2.16c-.25.31-.56.56-.93.75-.37.19-.79.29-1.27.29h-2.48v3.85h-2.03V17.72h4.58zm8.9 10.24v-4.33h-.71c-.21 0-.4.02-.58.05-.18.04-.34.1-.49.2-.15.1-.28.24-.39.42-.11.18-.21.41-.29.68l-.83 2.97h-2.22l.98-3.3c.15-.51.34-.93.59-1.29.24-.35.58-.6 1-.74-.33-.11-.61-.33-.86-.66s-.45-.75-.59-1.26l-.93-3h2.09l.89 2.81c.09.28.19.5.3.67.11.17.24.3.39.39.15.09.31.16.48.19.17.04.36.05.56.05h.62v-4.12h2.03v4.12h.62c.2 0 .38-.02.56-.05.17-.03.33-.1.47-.19.14-.09.27-.23.39-.39.12-.17.22-.39.31-.67l.89-2.81h2.08l-.92 3c-.16.5-.36.92-.61 1.26-.25.33-.53.55-.85.66.42.14.76.39.99.74.24.35.43.78.58 1.29l.98 3.3h-2.21l-.85-2.97c-.08-.28-.17-.51-.29-.68-.11-.18-.24-.32-.39-.42-.14-.1-.3-.17-.48-.2s-.37-.05-.58-.05h-.71v4.33h-2.02zm10.74-1.83h2.11c.46 0 .82-.13 1.09-.39.27-.26.41-.58.41-.97 0-.4-.14-.72-.41-.97-.27-.25-.64-.37-1.11-.37h-2.09v2.7zm-2.03 1.83V17.72h2.03v3.89h2.36c.5 0 .96.08 1.35.24.4.16.73.38 1.01.66s.49.61.64 1c.15.39.22.81.22 1.27 0 .38-.06.76-.18 1.13-.12.38-.3.72-.56 1.02-.25.3-.58.55-.97.75-.39.19-.88.29-1.44.29h-4.46zM132 17.72v10.24h-2.03V23.9h-1.19c-.21 0-.39.02-.56.06-.17.04-.32.11-.46.21-.14.1-.26.23-.37.41-.11.17-.2.4-.28.68l-.77 2.71h-2.24l.86-2.81c.12-.38.25-.71.4-1 .15-.29.38-.52.7-.69-.31-.09-.56-.23-.77-.41a2.21 2.21 0 0 1-.51-.63 2.85 2.85 0 0 1-.29-.77c-.06-.27-.09-.54-.09-.81 0-.39.06-.77.19-1.14.12-.38.31-.71.57-1 .26-.29.58-.53.97-.71.39-.18.85-.27 1.38-.27H132zm-2.03 1.82h-2.05c-.5 0-.88.12-1.11.37-.24.25-.36.59-.36 1.01 0 .4.12.7.37.9.25.2.6.3 1.07.3h2.08v-2.58z"/></svg>