<svg id="Слой_1" xmlns="http://www.w3.org/2000/svg" width="75" height="75" viewBox="0 0 75 75"><style>.st0{fill:#a8a8a8}</style><path class="st0" d="M37.5.12C16.79.12 0 16.88 0 37.56 0 58.24 16.79 75 37.5 75S75 58.24 75 37.56C75 16.88 58.21.12 37.5.12m0 73.7c-20.06 0-36.32-16.24-36.32-36.27 0-20.03 16.26-36.27 36.32-36.27s36.32 16.24 36.32 36.27c0 20.04-16.26 36.27-36.32 36.27"/><path d="M37.5 2.49c-9.7 0-18.48 3.93-24.83 10.27S2.38 27.88 2.38 37.56c0 9.68 3.93 18.45 10.29 24.79C19.02 68.7 27.8 72.63 37.5 72.63c9.69 0 18.47-3.93 24.83-10.27 6.36-6.35 10.29-15.11 10.29-24.79s-3.93-18.44-10.29-24.79C55.98 6.42 47.2 2.49 37.5 2.49m0-.7c9.89 0 18.85 4.01 25.33 10.48 6.48 6.47 10.49 15.41 10.49 25.29 0 9.88-4.01 18.82-10.49 25.29-6.48 6.47-15.44 10.48-25.32 10.48-9.89 0-18.85-4-25.33-10.48-6.49-6.47-10.5-15.41-10.5-25.29 0-9.88 4.01-18.82 10.49-25.29S27.61 1.79 37.5 1.79z"/><path class="st0" d="M50.69 38.93v-6.91c0-.21-.18-.38-.39-.38h-3.48V28.3a.39.39 0 0 0-.39-.39h-3.55v-3.48c0-.21-.17-.38-.39-.38h-1.57v-.22l-.07-.02-1.67-.45v-3.09h-3.11v3.77h-3.95v8.81l.03.03 3.78 3.88.03.03h1.59v21.34h1.55v-17.6h3.96v-8.16l-.04-.03-.35-.26-.13.02-.79 1.11-1.74-1.01v-1.96l.08-.1c.23-.28.44-.54.55-.67h.72v-2.79l-.05-.02-1.28-.59v-.12h.9V24.7h1.34v3.86h3.94v3.73h3.87v6.58l-6.98 6.99-.16.14v-4.89h-3.07v17.01h3.07V46.84l.58-.56 7.04-7.05.13-.3zM39 21.22h-1.46v15.39h-1.51l-3.73-3.83v-8.55h3.95v-3.77H39v.76zm.09 2.31l.75.2v.31h-.75v-.51zm0 1.17h.75V26l-.75-.35v-.95zm0 2.33h1.17v.24h-1.17v-.24zm0 .41h1.17v.45h-1.17v-.45zm0 2.04h.74v.72c-.29.35-.58.7-.74.87v-1.59zm0 1.79c.14-.13.35-.37.58-.64l.16-.18v1.71h-.74v-.89zm0 2.29h1.89v.31h-1.9v-.31zm0 .49h1.89v.62h-1.89v-.62zm3.78 5.56h-3.78v-.71c.91-.39 3.22-1.37 3.78-1.61v2.32zm0-3.23h-.18v-1.53h.18v1.53zm-.25-1.71v-.07l.14.07h-.14zm.25-.14l-.25-.13v-.48l.25-.07v.68zm0-.87l-.25.07v-.54l.25.18v.29zm0-.51l-.23-.16.23-.31v.47zm-.24-.87l.21.15-.33.45-.2-.14.32-.46zm-.43.61l.25.18v.56l-.55-.32.3-.42zm-.34.6l.53.31-.53.16v-.47zm.59.48v.34l-.43-.21.43-.13zm-.59.25l.58.29v.16h-.58v-.45zm.38 2.34h.64v.54c-.39.16-2.79 1.19-3.78 1.61v-2.15h3.14zm-.71-3.24v-.02l.16.09v1.28h-.16v-1.35zm-.37-.16v-.07l.19.11v.19h-.19v-.23zm0 .4h.18v.31h-.18v-.31zm0 .49h.18v.62h-.18v-.62zm-.18-1.07v.4h-1.9v-1.04h.8l1.1.64zm-1.89-4.91h1.17v.4h-1.17v-.4zm1.35-1.22v-.38l.73.34v.05l-.73-.01zm0 .18h.73v.47l-.73-.22v-.25zm0 .82v-.38l.33.1.4.12v.21h-.74v-.05zm0 .22h.73v.73l-.1-.05-.56-.27h-.07v-.41zm-.33 1.78l-.11.13v-.5h.4c-.07.1-.17.23-.29.37m.15-3.47v.47h-1.17v-1l1.17.53zm.48-.6h-.72v-.5l.72.21v.29zm0-.48l-.72-.21v-.39h.72v.6zm0-1.25h-.72v-.26l.13.04.59.16v.06zm1.49 22.36l-1.65 1.79v-6.37h1.65v4.58z"/><path d="M35.79 28.66v-3.99l-.82-.05c-1.72.86-2.68 2.32-2.85 5.66v2.29l.01.3.01.01c.05.05.31.32.56.57l.47.49 2.2-3.29H36v.12h-.01v27.36h1.37V30.87l-1.57-2.21zm-2.64 3.91l-.09-.04-.13-.27c-.15-.96-.18-1.88-.1-2.72l1.11.26c.01.36.06.75.15 1.18l-.94 1.59zm.82-3.5l-1.02-.32c.09-.5.22-.97.39-1.4l.83.73c-.1.29-.17.62-.2.99m.41-1.52l-.71-.91c.29-.51.68-.85 1.1-1.17.12.39.22.73.3 1 .04.14.04.15.04.15-.18.12-.47.42-.73.93m2.71 29.57h-.84V54.2h.84v2.92zm0-3.54h-.84v-4l.84.86v3.14zm0-3.97l-.84-.85v-3.52h.84v4.37zm0-4.9h-.84v-3.56l.84-.85v4.41zm0-5.1l-.84.85v-.94h.84v.09zm-4.97-7.04v-2.29c-.03.68-.03 1.44 0 2.29m1.05 1.36l-.47-.49.47.49m-1.03-1.06z"/><path d="M31.8 28.9l-1.26-.03c-3.22 1.38-4.88 6.34-4.03 12.34.47.43.95.85 1.42 1.28l3.2-4.79h1.08v20.42h3.19V37.91l-3.59-3.04V28.9zm-3.92 11.64l-.13-.06c-.13-.1-.16-.24-.19-.39-.22-1.41-.26-2.76-.15-3.99l1.63.38c.02.53.09 1.11.22 1.73l-1.38 2.33zm1.19-5.14l-1.5-.47c.13-.74.32-1.42.57-2.05l1.22 1.06c-.13.43-.24.91-.29 1.46m.61-2.24l-1.05-1.34c.43-.76.95-1.39 1.57-1.86.17.57.36 1.23.48 1.61.06.21.07.22.07.22-.26.18-.7.63-1.07 1.37m3.17 6.36h.99v.08l-.99.85v-.93zm0 1.53l1.91-1.53v1.58h-1.91v-.05zm0 .81h1.91v.05l-1.91 1.97v-2.02zm0 2.8l1.91-1.97v2.02h-1.91v-.05zm0 .57h1.91v2.02l-1.91-1.97v-.05zm0 .85l1.91 1.97v1.29h-1.91v-3.26zm0 3.79h1.91v.45l-1.91 1.97v-2.42zm0 3.27l1.91-1.97v2.41h-1.91v-.44zm0 1.06h1.91v2.93h-1.91V54.2z"/><path d="M45.06 47.98v14.8c10.82-3.25 18.71-13.27 18.71-25.13 0-14.49-11.77-26.23-26.27-26.23-14.51 0-26.27 11.75-26.27 26.23 0 11.86 7.89 21.88 18.71 25.13v-14.8l-7.98-8.11v-9.93h4.03v-4.19h4.39v-4.19h3.89V17.5h6.46v4.06h3.89v4.19h4.39v4.19h4.03v9.93l-7.98 8.11z"/><path class="st0" d="M66.85 39.44l.25.43.68-.37.72.39.25-.45-.96-.52zM34.89 7.53l-.56 1.18.9-.06.45-1.08.37-.03.07 1.04.79-.05-.21-2.96-1.52.1c-.71.05-.94.37-.89 1 .04.48.21.72.6.86m.48-1.22l.59-.04.04.62-.53.04c-.22.02-.37-.05-.38-.28-.02-.26.05-.32.28-.34m33.02 27.03l-.84.07c-.91.08-1.05.66-.98 1.46.07.8.31 1.35 1.22 1.27l.84-.07c.91-.08 1.04-.66.97-1.46-.07-.8-.29-1.35-1.21-1.27m.52 1.33c.04.41 0 .56-.44.6l-.67.06c-.44.04-.51-.1-.55-.51-.04-.41.01-.56.45-.6l.67-.06c.45-.04.51.1.54.51M22.67 12.59l-.53-1.03.42-.21.05.09c.41.81 1.01.73 1.72.36.72-.36 1.14-.79.73-1.61l-.38-.75c-.41-.81-1-.71-1.72-.35s-1.14.78-.73 1.6l.02.04-.42.21-.51-.99-.71.36 1.35 2.64.71-.36zm.6-2.89c.37-.19.52-.21.72.18l.3.6c.2.39.1.51-.27.7-.37.19-.53.19-.72-.2l-.3-.6c-.2-.37-.1-.5.27-.68m1.86-.64l.71-.27c-.09-.23.01-.33.31-.44.38-.15.47-.07.54.09.09.22.01.3-.22.39l-.35.13.2.51.39-.15c.24-.09.36-.04.44.16.09.23 0 .34-.35.47-.36.14-.48.15-.59-.14l-.71.27c.3.79.75.77 1.53.47 1.01-.39 1.12-.66.88-1.31-.13-.34-.33-.5-.71-.4l-.01-.03c.34-.2.33-.46.19-.81-.22-.58-.73-.56-1.45-.29-.73.28-1.07.6-.84 1.21l.04.14z"/><path class="st0" d="M66.86 38.55l.26.43.68-.37.71.4.25-.45-.95-.52zM29.34 9.75l-.3-1.13 1-.27.31 1.13.76-.21-.77-2.86-.76.2.28 1.08-1 .27-.28-1.08-.77.2.77 2.87zm2.85-1.2l1.05-.19.24.48.8-.14-1.41-2.77-1.19.21-.36 3.08.81-.14.06-.53zm.2-1.93l.59 1.2-.72.13.13-1.33zm32.55 41.51l.09.49.76-.11.54.61.39-.33-.72-.82zm-7.22-34.65c.31.26.29.38.18.51-.15.18-.26.16-.45 0l-.29-.24-.35.42.32.27c.2.17.21.29.07.46-.16.19-.3.16-.58-.07-.3-.25-.36-.34-.16-.58l-.58-.49c-.55.65-.31 1.03.33 1.57.83.69 1.12.66 1.57.13.23-.28.28-.54.01-.81l.02-.03c.34.2.56.07.8-.22.4-.47.14-.91-.45-1.4-.6-.5-1.04-.65-1.47-.14l-.08.09.58.49c.15-.2.28-.16.53.04m-4.18-.14l1.8-1.19.02.01-1.04 1.66.64.4 1.58-2.52-.89-.55-1.82 1.17-.03-.02 1.04-1.65-.64-.4-1.57 2.52zm11.39 9.42c-.42.22-.58.47-.54.89l-1.31-.04.43.8 1.17-.03.18.33-.92.49.37.7 2.62-1.39-.71-1.34c-.34-.63-.73-.71-1.29-.41m.77.82l.28.52-.55.29-.25-.47c-.11-.2-.1-.36.1-.46.22-.11.31-.07.42.12m-7.81-6.78l.47-.25.74.77-.26.47.56.58 1.51-2.71-.84-.87-2.76 1.42.58.59zm2.18-1.16l-.67 1.16-.51-.53 1.18-.63zm2.03 6.3l2.13-.32.01.02-1.64 1.07.41.63 2.49-1.62-.56-.87-2.15.29-.02-.02 1.64-1.07-.41-.63-2.49 1.62zm-1.22-1.73l-.52.42.47.59 1.06-.86-.15-.19 1.77-1.44-.5-.61-1.77 1.43-.65-.8 1.77-1.44-.5-.61-2.31 1.87zm-10.27-8.57l.53-1.04.92.47-.53 1.04.71.36 1.35-2.64-.71-.36-.51.99-.92-.47.51-.99-.71-.36-1.35 2.64zM42.85 8.2l.69.12c.82.14 1.04-.08 1.19-.9.13-.76-.09-1.08-.82-1.21l-1.47-.26-.52 2.92.78.14.15-.81zm.26-1.47l.53.09c.3.05.33.16.28.46-.07.38-.13.42-.43.37l-.54-.09.16-.83zm-2.96 2.01c.8.05 1.38-.09 1.45-1.01l.06-.84c.07-.91-.49-1.13-1.29-1.19-.8-.06-1.38.08-1.45.99l-.06.84c-.07.93.49 1.16 1.29 1.21m-.47-1.23l.05-.67c.03-.44.18-.48.59-.45.41.03.55.09.52.53l-.04.67c-.03.44-.18.49-.59.46-.42-.03-.56-.09-.53-.54m26.34 23.72l.53.05.2 1.04-.47.25.15.79 2.74-1.45-.23-1.18-3.09-.31.17.81zm2.46.21l-1.2.61-.14-.72 1.34.11z"/><path class="st0" d="M64.62 48.96l.09.49.77-.12.53.61.39-.33-.72-.82zm-16.96-38.6l.32-.42 1 .38-.04.53.76.29.22-3.09-1.13-.43-1.9 2.45.77.29zm1.49-1.97l-.12 1.34-.68-.26.8-1.08zm-3.64 1.3l.6-2.24 1.27.34.17-.62-2.04-.55-.77 2.87zm21.03 31.37l1.16.14-.13 1.02-1.15-.14-.1.79 2.95.36.1-.79-1.11-.13.13-1.03 1.11.14.09-.79-2.95-.36zM28.31 67.73h-.03l.04-2.4-.65-.23-1.45 1.92-.04-.02.82-2.13-.75-.25-.97 2.8 1.22.42 1.12-1.59.03.01-.08 1.95 1.19.41.97-2.81-.75-.25zm23.91-2.26l-1.07-2.01-.7.37 1.07 2.01-.71.38.33.61 2.11-1.12-.32-.61zm-6.74 1.45l.77.74.33-.36-.55-.54.17-.8-.5-.11zm2.58-2.02c-.55.22-.76.57-.51 1.18.25.62.63.73 1.19.5l.68-.28.43 1.06.73-.3-1.11-2.75-1.41.59zm.63 1.05c-.21.08-.31.06-.4-.16-.09-.21-.03-.3.18-.38l.51-.21.22.54-.51.21z"/><path class="st0" d="M46.33 66.67l.76.75.34-.37-.55-.53.17-.8-.5-.11zm-27.35-6.49l-.54.62-.53-.46c-.62-.54-.94-.47-1.49.16-.51.59-.48.98.08 1.46l1.13.98 1.95-2.24-.6-.52zm-1.53 1.75l-.41-.36c-.23-.2-.2-.31 0-.54.25-.29.33-.3.56-.1l.41.36-.56.64zm6.44 1.48l-.3.58 1.22.64-.27.51-1.12-.59-.26.48 1.12.6-.26.48-1.19-.64-.31.58 1.9 1 1.39-2.62zM18.8 13.95c.53.75 1.1.58 1.76.12.66-.46 1.02-.95.49-1.69l-.48-.69c-.52-.75-1.09-.57-1.75-.11s-1.02.93-.5 1.68l.48.69zm.41-1.81c.34-.24.49-.28.74.08l.38.55c.25.36.17.5-.17.73-.34.24-.49.27-.75-.09l-.39-.55c-.24-.36-.14-.48.19-.72m35.28 49.67l-.34.22-.17-.26-.66.43.17.26-.34.22c-.66.43-.77.81-.27 1.58.5.76.9.84 1.56.41l.33-.22.16.25.66-.43-.16-.25.34-.22c.66-.43.75-.83.26-1.58-.49-.78-.88-.83-1.54-.41m-.3 2.24c-.25.16-.42.09-.63-.23-.22-.34-.2-.5.05-.66l.23-.15.58.89-.23.15zm1.12-.73l-.23.15-.58-.89.24-.15c.25-.16.39-.11.61.23.21.32.22.5-.04.66m8.54-12.91l.74.38-.32.62c-.38.74-.23 1.02.52 1.4.69.35 1.06.23 1.4-.43l.68-1.33-2.65-1.35-.37.71zm1.07 1.15l.25-.48.76.38-.25.48c-.14.27-.26.27-.53.13-.35-.17-.37-.24-.23-.51m1.1-7.47l1.14.24-.05.23-1.31.57-.21.96 1.72-.79 1.21 1.32.2-.94-.94-.97.05-.24 1.1.24.16-.78-2.91-.62zM15.9 57.24l-.47.44.94 1.01-.42.39-.87-.92-.4.37.86.93-.4.37-.92-.99-.47.44 1.46 1.57 2.18-2.03zm48.61-4.04l-.71-.44c-.78-.48-1.24-.1-1.67.58-.43.68-.57 1.26.21 1.75l.71.44c.78.48 1.23.09 1.66-.59.42-.67.58-1.25-.2-1.74m-.39 1.38c-.22.35-.34.45-.71.21l-.57-.35c-.38-.24-.35-.39-.13-.74.22-.35.35-.44.72-.21l.57.36c.38.24.34.39.12.73m-8.59 6.14l.43.49 1.04-.9.38.43-.96.83.37.42.95-.83.36.41-1.02.88.42.49 1.62-1.4-1.95-2.24zm7.17-4.81l-.61-.47c-.86-.67-1.26-.24-1.76.4-.57.73-.57 1.09.09 1.61l.07.05.5-.64-.07-.05c-.27-.22-.19-.35.01-.61.29-.38.45-.28.8 0l.37.28c.34.26.42.38.14.74-.17.21-.34.35-.53.21l-.09-.07-.5.64.09.07c.6.47 1.03.27 1.52-.35.53-.7.74-1.21-.03-1.81m-3.91 1.77l.85.79-.7.76-.85-.79-.54.58 2.17 2.02.54-.58-.82-.76.71-.76.82.76.54-.57-2.18-2.03zm-36.02 5.18l-1.23.58-.2-.13.63-.97-.62-.41-.64.98-.2-.13.04-1.37-.83-.53.03 1.84-1.53.72.75.49 1.17-.57.19.12-.61.94.63.41.61-.94.2.13-.06 1.29.76.5.03-1.7 1.71-.72zM11.73 24.07l-.71-.41.35-.61c.41-.72.28-1.01-.44-1.42-.67-.39-1.05-.28-1.42.35l-.75 1.29 2.57 1.48.4-.68zm-1-1.21l-.27.47-.73-.42.27-.47c.16-.27.27-.26.53-.1.33.19.35.26.2.52m-.28 3.99L8.34 26l.38-.96 2.12.86.29-.74-2.75-1.11-.98 2.43 2.75 1.11zm-3.5 4.51c.47.12.74.03.99-.3l.95.9.22-.88-.89-.76.09-.36 1.01.25.19-.77-2.88-.72-.35 1.48c-.18.68.05 1 .67 1.16m-.01-1.13l.14-.57.61.15-.13.52c-.06.22-.17.33-.39.27-.24-.07-.29-.15-.23-.37m4.23-9.09l.68.49c.74.54 1.23.19 1.7-.46s.65-1.22-.09-1.76l-.68-.49c-.74-.54-1.22-.18-1.69.47-.48.65-.66 1.21.08 1.75m.48-1.35c.24-.33.37-.42.72-.16l.54.39c.36.26.32.41.08.75-.24.33-.37.42-.74.16l-.54-.39c-.36-.27-.31-.41-.06-.75m4.87-3.88c.7.83 1.19.49 1.81-.03.71-.59.79-.95.25-1.59l-.06-.07-.62.53.06.07c.22.27.12.39-.13.6-.36.31-.5.18-.78-.16l-.3-.36c-.27-.32-.33-.46.02-.75.2-.17.41-.27.56-.09l.07.09.63-.52-.07-.09c-.49-.58-.96-.47-1.56.03-.67.56-.98 1.01-.35 1.76l.47.58zm-3.13 2.89c.69.6 1.08.55 1.6-.04l.27-.31.23.2.52-.6-.23-.2.26-.3c.52-.59.51-.99-.18-1.59-.68-.6-1.09-.56-1.61.04l-.26.3-.23-.19-.52.6.22.2-.26.3c-.51.59-.49 1 .19 1.59m1.27-2.27c.2-.23.38-.2.67.05.31.27.33.43.13.65l-.18.2-.8-.7.18-.2zm-.88 1.01l.18-.21.8.7-.18.21c-.19.22-.35.21-.65-.05-.29-.26-.34-.43-.15-.65m-5.2 16.61l-.49-.22.15-1.05.53-.08.11-.8-3.07.48-.17 1.19 2.82 1.3.12-.82zm-1.03-.46l-1.23-.54v-.01l1.33-.18-.1.73zm3.04 15.16l-1.09.42-.37-.97 1.09-.41-.29-.74-2.77 1.06.28.74 1.05-.4.37.96-1.05.4.29.74 2.77-1.06zm.01 4.38l.75-.38c.81-.42.73-1.01.36-1.73-.36-.71-.79-1.14-1.61-.72l-.75.38c-.81.42-.71 1-.35 1.72.36.71.78 1.14 1.6.73m-.99-1.04c-.19-.37-.21-.52.18-.72l.6-.3c.39-.2.51-.1.7.27.19.37.2.52-.2.73l-.6.3c-.38.19-.49.08-.68-.28m-.01-6.06l-.53-.01-.28-1.03.45-.28-.21-.78-2.63 1.64.31 1.16 3.1.09-.21-.79zm-2.48-.04l1.15-.69.19.71-1.34-.02zm7.96 10.2l-1.83 1.42-.81-1.03-.51.4 1.3 1.66 2.34-1.83zm-1.68-2.17l-2.13.28-.01-.02 1.65-1.04-.4-.64L10 54.28l.55.88 2.15-.25.01.02-1.66 1.04.4.64 2.52-1.58zM8.39 43.88l.01.24.63-.11c0-.13-.01-.24-.03-.4-.1-.59-.56-.8-1.21-.68l-1.23.22-.14-.85 2.25-.39-.14-.78-2.93.51.42 2.36 1.92-.34c.29-.05.41.01.45.22m-.01-6.85l-1.16-.04.03-1.04 1.17.04.02-.79-2.97-.1-.02.79 1.11.04-.03 1.03-1.12-.04-.03.8 2.97.1zm.01 2.07c-.04-.6-.31-.89-.97-.85-.66.05-.89.37-.85.97l.05.73-1.15.08.06.79 2.96-.21-.1-1.51zm-1.15.82l-.04-.55c-.02-.22.03-.31.28-.33.23-.02.29.06.31.29l.04.55-.59.04zm58.11-11.66l2.21-.59.26 1-2.2.59.2.76 2.87-.77-.67-2.52-2.87.76zm-8.59 24.56l.48-.61-2.4-1.89-.68.87 1.01 1.97-.02.02-1.59-1.25-.48.61 2.4 1.89.67-.84-.99-1.99.02-.02 1.58 1.24zm2.39-3.69l.35-.69-2.74-1.36-.49.99 1.4 1.72-.01.03-1.8-.9-.35.7 2.74 1.36.48-.96-1.38-1.75.01-.03 1.79.89zm-.17-2.11l.11.04c.73.28 1.1-.05 1.39-.8.33-.84.38-1.4-.56-1.76l-.74-.29c-1.04-.41-1.32.14-1.62.92-.35.89-.24 1.25.57 1.56l.08.03.3-.78-.08-.03c-.34-.13-.3-.29-.18-.61.18-.46.36-.41.79-.24l.44.17c.41.16.53.25.36.69-.1.26-.23.45-.46.36l-.11-.04-.29.78zm1.21-3.56l.12.03c.76.17 1.08-.21 1.26-1 .2-.87.17-1.44-.82-1.66l-.77-.17c-1.09-.25-1.28.33-1.46 1.14-.21.93-.05 1.27.79 1.46l.09.02.18-.82-.09-.02c-.35-.08-.34-.24-.26-.57.11-.47.3-.45.74-.35l.47.1c.42.1.56.17.46.62-.06.27-.16.48-.4.42l-.11-.03-.2.83zm-.62-5.27c0-.42.06-.57.52-.58h.69c.46 0 .5.15.5.57 0 .42-.05.57-.5.57h-.69c-.46.02-.52-.13-.52-.56m-.71.01c0 .83.2 1.41 1.14 1.41h.87c.94 0 1.12-.59 1.12-1.42s-.19-1.41-1.13-1.41h-.87c-.94 0-1.13.59-1.13 1.42m2.1-4.31l.08.55c.05.31-.05.38-.36.43-.39.06-.45.01-.5-.29l-.09-.55.87-.14zm-1.53.24l.11.71c.13.84.43.99 1.28.86.79-.12 1.02-.45.9-1.2l-.23-1.52-3.02.47.12.8.84-.12zm-2.08-6.8l.18.4c.11.24.06.36-.14.45-.23.1-.35.02-.5-.33-.16-.37-.18-.48.12-.61l-.32-.72c-.8.35-.76.81-.41 1.6.45 1.02.74 1.12 1.39.84.34-.15.5-.37.38-.75l.03-.01c.22.34.49.31.84.16.59-.26.55-.77.23-1.5-.32-.73-.67-1.07-1.29-.8l-.12.05.31.71c.24-.1.34 0 .47.3.17.38.09.48-.07.56-.22.1-.31.03-.41-.21l-.16-.36-.53.22zm-2.33-2.63c-.26-.33-.3-.49.04-.77l.54-.43c.34-.27.49-.2.75.13s.32.48-.03.76l-.54.43c-.35.29-.5.21-.76-.12m-.22-2.25l.9-.72-.51-.64L52.8 23l.51.64.94-.75.3.38-.08.06c-.73.59-.52 1.17-.01 1.81.52.65 1.04.99 1.78.4l.67-.54c.73-.59.51-1.16-.01-1.81-.52-.65-1.03-.99-1.76-.4l-.04.03-.3-.37zm-3.26-1.51c-.33-.27-.41-.41-.12-.76l.43-.54c.29-.35.43-.29.76-.03.33.27.42.4.13.75l-.43.54c-.28.35-.44.3-.77.04m-.45.55c.64.52 1.22.73 1.82 0l.54-.67c.59-.73.25-1.24-.4-1.76s-1.22-.74-1.81-.01l-.54.67c-.58.73-.25 1.25.39 1.77m-.67-2.97l.06-.1c.43-.66.18-1.08-.5-1.53-.75-.49-1.29-.66-1.84.19l-.43.66c-.61.94-.13 1.31.57 1.77.8.52 1.17.49 1.64-.23l.05-.07-.7-.46-.05.08c-.2.3-.35.23-.63.05-.41-.27-.32-.44-.07-.82l.26-.4c.24-.37.35-.47.74-.21.23.15.39.32.26.52l-.06.1.7.45zm-5.86-1.94l-.27-.11c-.28-.11-.33-.26-.18-.65.14-.37.29-.48.58-.37l.26.1-.39 1.03zm1.16-.73l.26.1c.29.11.33.29.18.67-.15.39-.3.47-.58.36l-.26-.1.4-1.03zm-.76 1.94l.12-.3.39.15c.76.29 1.14.15 1.48-.72.34-.87.16-1.25-.6-1.54l-.38-.15.11-.28-.76-.3-.11.29-.39-.15c-.75-.29-1.14-.13-1.48.74-.34.88-.16 1.24.6 1.53l.39.15-.12.3.75.28zm-4.28-1.83c-.42-.06-.56-.14-.5-.6l.1-.68c.07-.45.22-.47.64-.41.42.06.56.13.5.58l-.1.68c-.06.45-.22.49-.64.43m-.1.7c.82.12 1.43.01 1.57-.92l.12-.85c.14-.93-.42-1.2-1.24-1.32-.82-.12-1.43-.02-1.56.91l-.12.85c-.15.93.41 1.21 1.23 1.33m-3.96-2.68h.56c.32 0 .37.1.37.42 0 .4-.05.45-.36.45h-.56l-.01-.87zm.01 1.54h.72c.85 0 1.04-.27 1.04-1.13 0-.8-.29-1.08-1.05-1.07l-1.54.01.02 3.06h.82l-.01-.87zm-4.9-1.65l.48 3.02.8-.13-.37-2.32 1.05-.17.37 2.32.81-.13-.48-3.02-2.66.43zm-3.53.26l-.32.12c.19.52.47.49.89.34.41-.15.64-.32.45-.83l-.32.12c.07.2 0 .29-.25.38-.26.09-.37.07-.45-.13m.11.86l-.73.27 1.06 2.87 1.04-.38.17-2.2.03-.01.7 1.89.73-.27-1.06-2.87-1.01.37-.2 2.22-.03.01-.7-1.9zm-2 3.67c-.37.21-.53.23-.76-.16l-.34-.6c-.23-.4-.12-.51.25-.72.37-.21.52-.24.75.15l.34.6c.23.39.13.52-.24.73m.36.61c.72-.41 1.13-.87.66-1.69l-.43-.75c-.47-.82-1.07-.68-1.79-.27-.72.41-1.14.86-.67 1.68l.43.75c.47.82 1.08.7 1.8.28m-4.84.43l.42-.37c.24-.21.35-.16.55.07.26.3.26.38.02.58l-.42.37-.57-.65zm1.02 1.16l.54-.48c.64-.56.61-.89.05-1.54-.53-.6-.93-.63-1.5-.13l-1.16 1.01 2.01 2.3.61-.54-.55-.62zm-2.84.67l.58-.59-.5-.5-1.73 1.76.51.5.58-.59 1.68 1.65.57-.58-1.69-1.65zm-1.47 2.33l-.1-.07c-.66-.43-1.09-.18-1.53.5-.49.75-.66 1.29.19 1.84l.66.43c.94.61 1.32.13 1.77-.56.52-.8.49-1.17-.23-1.64l-.07-.05-.46.7.07.05c.3.2.23.34.05.63-.27.41-.44.32-.82.07l-.4-.26c-.37-.24-.46-.36-.21-.74.15-.23.32-.39.53-.26l.1.06.45-.7zm-2.04 4.95l.18-.39c.11-.24.23-.29.43-.2.23.1.25.25.09.6-.16.37-.24.46-.53.33l-.32.72c.8.36 1.11.02 1.46-.77.46-1.02.34-1.3-.31-1.59-.34-.15-.61-.12-.8.22l-.03-.01c.1-.4-.09-.57-.45-.73-.58-.26-.94.11-1.27.84-.33.73-.35 1.22.27 1.49l.12.05.32-.71c-.24-.1-.23-.25-.1-.55.17-.38.29-.39.46-.32.22.1.23.21.12.44l-.16.35.52.23zm-.88 2.91l-.15.74-1.23-.63v-.01l1.38-.1zm.61-.04l.55-.05.17-.81-3.19.28-.25 1.21 2.81 1.52.17-.83-.48-.26.22-1.06zm-3.26 4.52l3.05.18.05-.81-2.39-.14.08-1.35-.67-.04-.12 2.16zm.63 2.76l-.13-1.38-.67.06.21 2.2 3.05-.29-.21-2.22-.67.06.13 1.41-.6.06-.12-1.3-.56.05.12 1.3-.55.05zm.31 2.7l-.19-.8-.69.16.56 2.39.69-.16-.19-.8 2.29-.54-.19-.79-2.28.54zm2.6 4.22l.1.27c.1.28.03.42-.37.56-.37.14-.56.1-.66-.19l-.1-.26 1.03-.38zm-1.31-.39l-.09-.26c-.11-.29 0-.44.38-.58.4-.15.55-.09.65.2l.09.26-1.03.38zm1.96-.72l-.3.11-.14-.39c-.28-.76-.64-.95-1.52-.63-.88.32-1.04.71-.76 1.47l.14.39-.29.1.28.76.29-.1.14.4c.28.76.66.94 1.53.62.89-.33 1.03-.7.75-1.46l-.15-.39.3-.11-.27-.77zm-.04 5.33l-.69-1.2-.58.33 1.1 1.91 2.66-1.52-1.11-1.94-.58.33.71 1.23-.52.3-.65-1.13-.49.28.65 1.13-.5.28zm1.85 3.64l.51.64 2.39-1.9-.51-.64-.94.74-.66-.83.94-.75-.51-.64-2.39 1.9.51.64.9-.72.67.83-.91.73z"/></svg>