<svg id="Слой_1" xmlns="http://www.w3.org/2000/svg" width="82" height="72" viewBox="0 0 82 72"><style>.st0{fill:#a8a8a8}</style><path class="st0" d="M82 36c0 9.94-3.97 18.94-10.37 25.45C65.22 67.97 56.37 72 46.6 72c-9.78 0-18.63-4.03-25.03-10.55C15.15 54.94 11.19 45.94 11.19 36s3.96-18.94 10.37-25.45C27.96 4.03 36.81 0 46.59 0c9.78 0 18.63 4.03 25.03 10.55C78.03 17.06 82 26.06 82 36zm-2.07 0c0-9.37-3.73-17.84-9.76-23.98C64.13 5.89 55.8 2.09 46.6 2.09c-9.2 0-17.53 3.79-23.56 9.93C17 18.16 13.26 26.64 13.26 36c0 9.36 3.73 17.84 9.77 23.98 6.03 6.14 14.36 9.93 23.56 9.93s17.53-3.8 23.56-9.93c6.04-6.14 9.78-14.62 9.78-23.98"/><path d="M68.21 35.41c0 12.23-9.83 22.14-21.95 22.14s-21.95-9.91-21.95-22.14 9.83-22.14 21.95-22.14c12.13 0 21.95 9.91 21.95 22.14"/><path class="st0" d="M68.89 35.41c0 6.31-2.53 12.01-6.63 16.14-4.09 4.13-9.75 6.68-16 6.68s-11.91-2.56-16-6.68a22.872 22.872 0 0 1-6.62-16.14c0-6.31 2.53-12.01 6.62-16.14 4.09-4.13 9.75-6.68 16-6.68s11.91 2.56 16 6.69c4.1 4.12 6.63 9.83 6.63 16.13zm-1.35.01c0-5.93-2.38-11.29-6.23-15.17-3.85-3.88-9.17-6.29-15.04-6.29-5.87 0-11.19 2.4-15.03 6.29A21.422 21.422 0 0 0 25 35.41c0 5.92 2.38 11.29 6.23 15.17 3.85 3.89 9.17 6.29 15.04 6.29 5.87 0 11.19-2.4 15.04-6.29 3.84-3.88 6.23-9.24 6.23-15.16"/><path d="M64.33 40.61c0 9.2-7.28 16.67-16.27 16.67s-16.27-7.46-16.27-16.67c0-9.2 7.28-16.67 16.27-16.67s16.27 7.47 16.27 16.67"/><path d="M61.78 45.35c0 6.16-4.95 11.15-11.06 11.15-6.1 0-11.05-4.99-11.05-11.15S44.62 34.2 50.72 34.2c6.11-.01 11.06 4.99 11.06 11.15"/><path class="st0" d="M65.01 40.61c0 4.79-1.9 9.13-4.96 12.26-3.07 3.14-7.3 5.08-11.99 5.08-4.68 0-8.92-1.94-11.99-5.08a17.513 17.513 0 0 1-4.96-12.26c0-4.79 1.9-9.12 4.96-12.26 3.07-3.14 7.3-5.08 11.99-5.08 4.68 0 8.92 1.94 11.99 5.09 3.06 3.12 4.96 7.46 4.96 12.25zm-1.36 0c0-4.42-1.75-8.41-4.57-11.31-2.82-2.89-6.72-4.68-11.02-4.68s-8.2 1.79-11.02 4.68a16.144 16.144 0 0 0-4.57 11.3c0 4.41 1.75 8.41 4.57 11.3 2.82 2.89 6.72 4.68 11.02 4.68s8.2-1.79 11.02-4.68c2.82-2.88 4.57-6.88 4.57-11.29"/><path class="st0" d="M6.34 35.15l4.53-6.09c4.01-3.82 11.31-1.73 18.89.86l31.9 12.84.21 1.54c-.26 1.67.7 2.46-.16 3.97-1.91 3.39-5.16 6.25-9.17 7.83l-7.22 1.1-1.99-1.13L0 55.91l1.66-5.18-.65.06.17-6.87c-.26-4.11 3.66-5.75 5.16-8.77"/><path d="M2.7 40.74c-.43 2.12 15.9 4.03 22.51-5.35l3.46.75.06 7.07 2.31.48-.14-6.89 26.36 7.74v.64L33.6 38.64l.03 5.6 27.32 5.29-1.22 1.67-38.3-6.03-.08 3.25 37.54 3.72-.91.79-32.73-2.49-3.09 4.29-4.26-.06-.85-.02-2.39.01 1.33-3.74c-.27 0-.62.03-.89.03l-1.28 3.67-2.43.02 1.16-3.68h-.84l-1.21 3.68-2.62-.01 1.27-3.69c-.26 0-.58-.01-.84-.01l-1.23 3.66-2.69.07 1.19-3.79c-.27-.01-.53-.02-.8-.02L3.6 54.63l-2.35-.03 1.1-3.85H1.9l.06-.92c5.31.25 10.65.29 16.02.11.58-.65.7-1.91.79-2.96l.05-2.21c-.62 0-1.38-.01-2-.01-.33 1.34-1.93 1.45-2.22.03-1.34.01-2.99.08-4.33.07-.67 2.06-2.72 1.81-3.09-.05-1.09-.04-2.52 0-3.59-.08-.62 1.36-1.24 1.16-1.61-.11l-.14-.01c-.08-2.02.25-2.97.86-3.87"/><path d="M8.54 47.1h2.67l-.07.78h-.71c-.28.31-.45.63-.18 1.01l.75.04-.09.72-2.28-.02-.09-2.53zm2.24-16.72l4.92-.5-2.64 4.31-4.95-.04zm11.82-.04l-5.54-.33-2.47 4.14 6.03-.05zm3.51.45l-2.22-.36-2.07 3.63 2.94-.46zm2.68.88l-1.67-.65-1.2 2.76 2.84.78zm2.2 2.43l26.23 9.12v.63L30.99 35.3zm-.13-2.66l26.12 10.38.13.6-26.12-9.7zm27.26 12.35c.01-.8-.14-1.52-.37-2.21l1.19.47c.21.55.34 1.13.36 1.74l-.02 7.15c.01.27 0 .53-.03.8-.52.54-.66.73-1.19 1.15l-.13-.48c.19-.57.15-1.15.18-1.65v-6.97z"/><path d="M59.03 43.78l2.81.88-.1 1.73-2.69-.74zM25.4 52.01l2.59.09.61.69c-.07.28-.29.43-.66.46l-.78.06c-.62.18-1.05.6-1.31 1.26h-2.28l1.83-2.56zm4.14.22l2.85.07.41.51v.15c.36.09.78.35.41.61-.59.16-.94.53-1.05 1.11l-3.35-.03c-.03-.76.35-1.32.98-1.24.27-.12.47-.35.31-.58l-.56-.6zm4.85.18l1.96.14.41.51v.15c.13.09.27.35.41.61l11.62.43.7-.83 9.44.3L56.79 55l-21.63-.33c-.01-.38-.29-.8-1.06-.79.26-.45.22-.32.53-.29.27-.12.47-.35.31-.58l-.55-.6zm25.57-5.75l2.21.6-.86 1.68-1.35-.37zm-25.14-6.61l2.96.77v3.3l-2.89-.58c-.21-.06-.42-.3-.43-.52l.02-2.62c-.05-.23.11-.42.34-.35m3.41.89l3.23.84v3.08l-3.23-.65v-3.27zm3.69.97l3.14.82v2.87l-3.14-.63v-3.06zm3.59.94l3.03.79v2.66l-3.03-.61v-2.84zm3.49.91l2.78.73v2.47L49 46.39v-2.63zm3.23.84l2.46.64v2.29l-2.46-.5V44.6zm2.91.76l2.16.57-.02 2.14-2.14-.43v-2.28z"/><path class="st0" d="M29.1 8.67l3.25 6.58 1.54-.77-1.12-2.27 1.46-.74c.79-.4 2.43-1.39 1.42-3.45-.8-1.63-2.19-1.55-3.51-.89L29.1 8.67zm2.17.51l1.2-.61c.34-.17 1.08-.59 1.52.3.32.64.07 1.09-.66 1.46l-1.2.6-.86-1.75zm13.16 2.33c2.51-.15 3.58-1.88 3.45-4.11-.13-2.22-1.41-3.81-3.91-3.65-2.87.18-3.55 2.4-3.45 4.1.1 1.71 1.04 3.83 3.91 3.66m-.09-1.43c-.96.06-1.86-.42-1.98-2.34-.1-1.68.51-2.49 1.68-2.57 1.76-.11 1.94 1.69 1.98 2.34.04.62.07 2.46-1.68 2.57m12.74.99c-.27.48-.88 1.13-1.93.71-1.08-.43-1.3-1.59-.8-2.88.89-2.29 2.18-1.85 2.54-1.71.37.15 1.25.55.95 1.76l1.57.62c.34-1.03.33-2.78-2.07-3.74-.65-.26-3.32-1.16-4.73 2.44-1.05 2.69.22 4.12 1.96 4.81 2.4.96 3.59-.4 4.1-1.38l-1.59-.63zm8.66 1.8l1.99 1.91-4.05 4.3 1.24 1.19 5.02-5.33-4.49-4.3-5.02 5.33 1.25 1.19 4.06-4.29zm7.9 7.72L67 23.64l.71 1.58L70 24.16l.68 1.5c.37.81 1.29 2.5 3.36 1.55 1.64-.75 1.62-2.15 1-3.51l-1.4-3.11zm-.58 2.17l.56 1.23c.16.35.55 1.11-.35 1.52-.64.3-1.08.03-1.42-.71l-.56-1.23 1.77-.81zm-3.23 13.21c-.07 2.53 1.55 3.76 3.75 3.82 2.21.06 3.88-1.08 3.95-3.61.08-2.9-2.06-3.78-3.75-3.82-1.7-.05-3.88.71-3.95 3.61m1.41.04c.02-.97.58-1.84 2.48-1.78 1.67.05 2.42.73 2.39 1.92-.05 1.77-1.84 1.8-2.49 1.78-.6-.02-2.42-.16-2.38-1.92m-3.79 10.03l-.8 1.54.92.48-.13.24c-1.3 2.52 0 3.91 1.03 4.45 1.01.53 2.91.83 4.21-1.69l.13-.24.91.48.79-1.54-.91-.48.13-.25c1.29-2.51-.03-3.92-1.04-4.44-1.04-.54-2.91-.82-4.21 1.68l-.13.25-.9-.48zm2.07 1.27l.06-.12c.75-1.45 1.62-1.35 2.29-1 1.44.76.66 2.15.5 2.47l-.06.12-2.79-1.47zm-.65 1.25l2.79 1.47-.06.12c-.16.32-.85 1.76-2.29 1-1.01-.53-1.06-1.39-.5-2.47l.06-.12zm-8.99 6.96l1.82 2.78.03-.02.06-4.04 1.74-1.16-.3 4.92 4.25 1.26-1.7 1.13-3.49-1.26-.03.02 1.64 2.5-1.43.96-1.64-2.5-.03.02-.22 3.74L58.89 65l.52-4.44-4.6-1.65 1.74-1.16 3.71 1.52.03-.02-1.82-2.78 1.41-.95zm-9.23 8.5l.19 1.48-4.01.53.19 1.42 5.71-.75-.95-7.29-5.81.77.19 1.42 4.11-.54.21 1.64-3.53.47.17 1.34 3.53-.49zm-7.4-3.74c-2.81-1.29-3.7.92-4.13 2.27l-.77 2.44-1.97-.59 1.67-5.68-1.65-.49-2.07 7.05 5.17 1.55 1.04-3.35c.37-1.18.82-2.49 2.31-1.83l.4-1.37zM26.03 17.36c.93 0 1.7-.77 1.7-1.71s-.76-1.71-1.7-1.71-1.7.77-1.7 1.71.76 1.71 1.7 1.71m5.2 44.25c.93 0 1.7-.77 1.7-1.71s-.76-1.71-1.7-1.71c-.93 0-1.7.77-1.7 1.71 0 .95.76 1.71 1.7 1.71m31.23-16.33c0 3.29-1.33 6.27-3.46 8.43a11.776 11.776 0 0 1-8.35 3.49h-.01c-2.37 0-4.57-.7-6.42-1.91h3.1c1.04.35 2.16.55 3.32.55h.01c2.88 0 5.49-1.18 7.38-3.09 1.89-1.91 3.07-4.55 3.07-7.46v-.01c0-2.91-1.17-5.54-3.06-7.45a10.374 10.374 0 0 0-7.39-3.09h-.01c-2.11 0-4.07.63-5.72 1.72l-1.55-.56c2-1.58 4.53-2.52 7.27-2.53h.01c3.26 0 6.22 1.33 8.35 3.49 2.13 2.15 3.46 5.12 3.46 8.42z"/></svg>