<svg id="Слой_1" xmlns="http://www.w3.org/2000/svg" width="70" height="85" viewBox="0 0 70 85"><style>.st0{fill:#a8a8a8}</style><path class="st0" d="M31.22 41.42c-3.76-6.41-4.33-13.87.35-18.93l.19-5.25c-5.99 5.76-6.31 17.35-.54 24.18"/><path class="st0" d="M31.35 49.99c-8.02-.86-13.81-7.91-12.92-15.75 8.01.86 13.8 7.91 12.92 15.75m-.49-.6c.65-5.76-3.97-11.38-9.86-12.01-.65 5.76 3.97 11.38 9.86 12.01M29.68 60.9c-8.06-.31-14.34-6.94-14.03-14.82 8.07.31 14.35 6.95 14.03 14.82m-.53-.56c.23-5.79-4.77-11.08-10.7-11.3-.23 5.78 4.78 11.07 10.7 11.3"/><path d="M65.65 9.28v34.68c-12.44 0-23 7.54-27.38 18.13.64.33 1.22.53 1.62 1.15C45.53 53.96 56.9 47.62 70 47.62V9.03c-1.43 0-2.98 0-4.35.25"/><path d="M65.64 11.11V5.93c-1.82.38-3.69.75-5.47 1.27l-.21-.59c2.07-.6 4.24-1.02 6.36-1.46v5.95h-.68z"/><path d="M36.2 26.27c.25-.05.52-.05.78.01l.24.08C40.64 14.89 47.95 11.72 57 8.19v29.57c-8.15 2.13-16.6 6.36-19.84 21.32.18.12.34.27.47.45 3.53-11.07 12.81-18.97 23.69-18.97V1.97c-17.2 5.74-23.29 13.08-25.12 24.3"/><path d="M37.99 15.08c-2.94-7.86-12.78-12-20.47-14.2l.05 10.71h4.36v5.59h-.68v-4.92h-4.36L16.83 0c7.09 1.89 18.64 6 21.2 11.45C40.47 6.63 53.59 1.23 59.42.39c-7.5 2.09-18.34 7.57-21.43 14.69M6.45 31.45c5.2-7.48 13.38-12.14 22.03-13.71-3.62 1.45-11.76 3.9-17.07 13.65a6.07 6.07 0 0 0-3.96-.3c-.35.09-.69.21-1 .36m-2.8 21.77c-1.38-4.03-.88-11.77-.32-14.64a5.865 5.865 0 0 0 2.61 3.17c-.76 2.16-1.61 6-2.29 11.47M9.8 40.95c2.48-.65 3.95-3.14 3.29-5.56-.66-2.42-3.21-3.86-5.7-3.21-2.48.65-3.95 3.14-3.29 5.56.67 2.42 3.22 3.86 5.7 3.21"/><path d="M3.2 65.21C-.83 57.07-.87 47.83 2.06 39.72c-.52 3.78-2.43 11.9 3.56 21.27a5.782 5.782 0 0 0-2.42 4.22m17.9 13.25c-4.26-.84-10.87-5.14-13.14-7.04 1.45.29 2.9.04 4.12-.62 1.53 1.71 4.51 4.35 9.02 7.66m-7.8-11.34c.67-2.42-.81-4.91-3.29-5.56-2.48-.65-5.03.79-5.7 3.21-.67 2.42.81 4.91 3.29 5.56s5.03-.79 5.7-3.21"/><path d="M31.5 84.83c-9.23-.66-17.45-5.25-23.17-11.78 3.09 2.33 9.34 8 20.64 7.62a5.72 5.72 0 0 0 1.72 3.5c.25.25.53.47.81.66m20.7-8.51c-2.88 3.19-9.99 6.63-12.82 7.59a5.709 5.709 0 0 0 1.51-3.79c2.3-.44 6.12-1.65 11.31-3.8m-13.95.93c-1.82-1.77-4.76-1.77-6.58 0a4.457 4.457 0 0 0 0 6.42c1.82 1.77 4.76 1.77 6.58 0s1.82-4.65 0-6.42"/><path d="M63.06 70.7c-5.2 7.48-13.38 12.14-22.03 13.71 3.62-1.45 11.76-3.9 17.07-13.65a6.07 6.07 0 0 0 4.96-.06m2.8-21.76c1.38 4.03.88 11.77.32 14.64a5.865 5.865 0 0 0-2.61-3.17c.76-2.17 1.6-6.01 2.29-11.47M59.7 61.2c-2.48.65-3.95 3.14-3.29 5.56s3.21 3.86 5.7 3.21c2.48-.65 3.95-3.14 3.29-5.56-.67-2.42-3.22-3.86-5.7-3.21"/><path class="st0" d="M35.34 17.24h.39l.25 4.79h.6v.83h-.55l.15 2.64h1.21v.38h.71l-.47 2.37h-.53v.44h-.64l.01 2.16h.49v.62l-.5.01.01 5.87.8.01v1.38h-.78l1.18 19.35 3.9 7.46-.43.01c-1.72-1.66-3.13-4.1-5.03.03h-.78c-2.08-3.65-2.92-2.4-5.23 0h-.43l3.8-7.61 1.16-19.24h-.71v-1.39h.73l.02-5.87-.46.01v-.63l.47-.01.01-2.09h-.49v-.5h-.51l-.54-2.34h.65v-.42h1.08l.13-2.65h-.52v-.82h.6l.25-4.79z"/><path d="M17.6 68.4h2.32v.67h-.79v4h-.75v-4h-.78zm2.59 1.12c0-.75.4-1.17 1.14-1.17.74 0 1.14.43 1.14 1.17v2.43c0 .75-.4 1.18-1.14 1.18-.74 0-1.14-.43-1.14-1.18v-2.43zm.75 2.48c0 .33.15.46.39.46.24 0 .39-.13.39-.46v-2.52c0-.33-.15-.46-.39-.46-.24 0-.39.13-.39.46V72zm3.83 1.07h-.76V68.4h2.37v4.67h-.76v-4h-.85zm4.39-3.52v.61c0 .75-.37 1.15-1.12 1.15h-.35v1.76h-.75V68.4h1.11c.74 0 1.11.41 1.11 1.15m-1.48-.48v1.58h.35c.24 0 .37-.11.37-.44v-.7c0-.33-.13-.44-.37-.44h-.35zm1.77.45c0-.75.4-1.17 1.14-1.17.74 0 1.14.43 1.14 1.17v2.43c0 .75-.4 1.18-1.14 1.18-.74 0-1.14-.43-1.14-1.18v-2.43zM30.2 72c0 .33.15.46.39.46.24 0 .39-.13.39-.46v-2.52c0-.33-.15-.46-.39-.46-.24 0-.39.13-.39.46V72zm2.77 1.07h-.76V68.4h.76v2h.85v-2h.77v4.67h-.77v-2h-.85zm2.13-2.67h1.37v.67H35.1zm3.47 1.32l.51-3.32h1.05v4.67h-.71v-3.35l-.52 3.35h-.71l-.56-3.3v3.3h-.66V68.4h1.05zm5.35-.39v.62c0 .75-.38 1.17-1.12 1.17-.74 0-1.12-.43-1.12-1.17v-2.43c0-.75.38-1.17 1.12-1.17.74 0 1.12.43 1.12 1.17v.45h-.71v-.5c0-.33-.15-.46-.39-.46-.24 0-.39.13-.39.46V72c0 .33.15.45.39.45.24 0 .39-.12.39-.45v-.67h.71zm2.7-1.86v.17c0 .48-.15.79-.48.94.4.15.56.51.56 1v.38c0 .72-.39 1.11-1.14 1.11h-1.18V68.4h1.13c.78 0 1.11.35 1.11 1.07m-1.5-.4v1.23h.29c.28 0 .45-.12.45-.49v-.26c0-.33-.12-.48-.38-.48h-.36zm0 1.9v1.43h.43c.25 0 .39-.11.39-.46v-.41c0-.43-.14-.57-.49-.57h-.33zm4.46 2.1h-.76l-.13-.85h-.92l-.13.85h-.69l.77-4.67h1.1l.76 4.67zm-1.71-1.48h.72l-.36-2.36-.36 2.36zm2-2.07c0-.75.4-1.17 1.14-1.17s1.14.43 1.14 1.17v2.43c0 .75-.4 1.18-1.14 1.18s-1.14-.43-1.14-1.18v-2.43zm.75 2.48c0 .33.15.46.39.46.24 0 .39-.13.39-.46v-2.52c0-.33-.15-.46-.39-.46-.24 0-.39.13-.39.46V72z"/></svg>